<?xml version="1.0" encoding="utf-8" standalone="no"?>
<!DOCTYPE svg PUBLIC "-//W3C//DTD SVG 1.1//EN"
  "http://www.w3.org/Graphics/SVG/1.1/DTD/svg11.dtd">
<!-- Created with matplotlib (https://matplotlib.org/) -->
<svg height="172.08pt" version="1.1" viewBox="0 0 295.2 172.08" width="295.2pt" xmlns="http://www.w3.org/2000/svg" xmlns:xlink="http://www.w3.org/1999/xlink">
 <defs>
  <style type="text/css">
*{stroke-linecap:butt;stroke-linejoin:round;}
  </style>
 </defs>
 <g id="figure_1">
  <g id="patch_1">
   <path d="M 0 172.08 
L 295.2 172.08 
L 295.2 0 
L 0 0 
z
" style="fill:#ffffff;"/>
  </g>
  <g id="axes_1">
   <g id="patch_2">
    <path d="M 54.02 130.12 
L 284.4 130.12 
L 284.4 25.44 
L 54.02 25.44 
z
" style="fill:#ffffff;"/>
   </g>
   <g id="matplotlib.axis_1">
    <g id="xtick_1">
     <g id="line2d_1">
      <defs>
       <path d="M 0 0 
L 0 3.5 
" id="mbcd5fd5c8c" style="stroke:#000000;stroke-width:0.8;"/>
      </defs>
      <g>
       <use style="stroke:#000000;stroke-width:0.8;" x="60.217607" xlink:href="#mbcd5fd5c8c" y="130.12"/>
      </g>
     </g>
     <g id="text_1">
      <!-- 0 -->
      <defs>
       <path d="M 31.78125 66.40625 
Q 24.171875 66.40625 20.328125 58.90625 
Q 16.5 51.421875 16.5 36.375 
Q 16.5 21.390625 20.328125 13.890625 
Q 24.171875 6.390625 31.78125 6.390625 
Q 39.453125 6.390625 43.28125 13.890625 
Q 47.125 21.390625 47.125 36.375 
Q 47.125 51.421875 43.28125 58.90625 
Q 39.453125 66.40625 31.78125 66.40625 
z
M 31.78125 74.21875 
Q 44.046875 74.21875 50.515625 64.515625 
Q 56.984375 54.828125 56.984375 36.375 
Q 56.984375 17.96875 50.515625 8.265625 
Q 44.046875 -1.421875 31.78125 -1.421875 
Q 19.53125 -1.421875 13.0625 8.265625 
Q 6.59375 17.96875 6.59375 36.375 
Q 6.59375 54.828125 13.0625 64.515625 
Q 19.53125 74.21875 31.78125 74.21875 
z
" id="DejaVuSans-48"/>
      </defs>
      <g transform="translate(57.036357 144.718437)scale(0.1 -0.1)">
       <use xlink:href="#DejaVuSans-48"/>
      </g>
     </g>
    </g>
    <g id="xtick_2">
     <g id="line2d_2">
      <g>
       <use style="stroke:#000000;stroke-width:0.8;" x="102.959722" xlink:href="#mbcd5fd5c8c" y="130.12"/>
      </g>
     </g>
     <g id="text_2">
      <!-- 10 -->
      <defs>
       <path d="M 12.40625 8.296875 
L 28.515625 8.296875 
L 28.515625 63.921875 
L 10.984375 60.40625 
L 10.984375 69.390625 
L 28.421875 72.90625 
L 38.28125 72.90625 
L 38.28125 8.296875 
L 54.390625 8.296875 
L 54.390625 0 
L 12.40625 0 
z
" id="DejaVuSans-49"/>
      </defs>
      <g transform="translate(96.597222 144.718437)scale(0.1 -0.1)">
       <use xlink:href="#DejaVuSans-49"/>
       <use x="63.623047" xlink:href="#DejaVuSans-48"/>
      </g>
     </g>
    </g>
    <g id="xtick_3">
     <g id="line2d_3">
      <g>
       <use style="stroke:#000000;stroke-width:0.8;" x="145.701837" xlink:href="#mbcd5fd5c8c" y="130.12"/>
      </g>
     </g>
     <g id="text_3">
      <!-- 20 -->
      <defs>
       <path d="M 19.1875 8.296875 
L 53.609375 8.296875 
L 53.609375 0 
L 7.328125 0 
L 7.328125 8.296875 
Q 12.9375 14.109375 22.625 23.890625 
Q 32.328125 33.6875 34.8125 36.53125 
Q 39.546875 41.84375 41.421875 45.53125 
Q 43.3125 49.21875 43.3125 52.78125 
Q 43.3125 58.59375 39.234375 62.25 
Q 35.15625 65.921875 28.609375 65.921875 
Q 23.96875 65.921875 18.8125 64.3125 
Q 13.671875 62.703125 7.8125 59.421875 
L 7.8125 69.390625 
Q 13.765625 71.78125 18.9375 73 
Q 24.125 74.21875 28.421875 74.21875 
Q 39.75 74.21875 46.484375 68.546875 
Q 53.21875 62.890625 53.21875 53.421875 
Q 53.21875 48.921875 51.53125 44.890625 
Q 49.859375 40.875 45.40625 35.40625 
Q 44.1875 33.984375 37.640625 27.21875 
Q 31.109375 20.453125 19.1875 8.296875 
z
" id="DejaVuSans-50"/>
      </defs>
      <g transform="translate(139.339337 144.718437)scale(0.1 -0.1)">
       <use xlink:href="#DejaVuSans-50"/>
       <use x="63.623047" xlink:href="#DejaVuSans-48"/>
      </g>
     </g>
    </g>
    <g id="xtick_4">
     <g id="line2d_4">
      <g>
       <use style="stroke:#000000;stroke-width:0.8;" x="188.443952" xlink:href="#mbcd5fd5c8c" y="130.12"/>
      </g>
     </g>
     <g id="text_4">
      <!-- 30 -->
      <defs>
       <path d="M 40.578125 39.3125 
Q 47.65625 37.796875 51.625 33 
Q 55.609375 28.21875 55.609375 21.1875 
Q 55.609375 10.40625 48.1875 4.484375 
Q 40.765625 -1.421875 27.09375 -1.421875 
Q 22.515625 -1.421875 17.65625 -0.515625 
Q 12.796875 0.390625 7.625 2.203125 
L 7.625 11.71875 
Q 11.71875 9.328125 16.59375 8.109375 
Q 21.484375 6.890625 26.8125 6.890625 
Q 36.078125 6.890625 40.9375 10.546875 
Q 45.796875 14.203125 45.796875 21.1875 
Q 45.796875 27.640625 41.28125 31.265625 
Q 36.765625 34.90625 28.71875 34.90625 
L 20.21875 34.90625 
L 20.21875 43.015625 
L 29.109375 43.015625 
Q 36.375 43.015625 40.234375 45.921875 
Q 44.09375 48.828125 44.09375 54.296875 
Q 44.09375 59.90625 40.109375 62.90625 
Q 36.140625 65.921875 28.71875 65.921875 
Q 24.65625 65.921875 20.015625 65.03125 
Q 15.375 64.15625 9.8125 62.3125 
L 9.8125 71.09375 
Q 15.4375 72.65625 20.34375 73.4375 
Q 25.25 74.21875 29.59375 74.21875 
Q 40.828125 74.21875 47.359375 69.109375 
Q 53.90625 64.015625 53.90625 55.328125 
Q 53.90625 49.265625 50.4375 45.09375 
Q 46.96875 40.921875 40.578125 39.3125 
z
" id="DejaVuSans-51"/>
      </defs>
      <g transform="translate(182.081452 144.718437)scale(0.1 -0.1)">
       <use xlink:href="#DejaVuSans-51"/>
       <use x="63.623047" xlink:href="#DejaVuSans-48"/>
      </g>
     </g>
    </g>
    <g id="xtick_5">
     <g id="line2d_5">
      <g>
       <use style="stroke:#000000;stroke-width:0.8;" x="231.186067" xlink:href="#mbcd5fd5c8c" y="130.12"/>
      </g>
     </g>
     <g id="text_5">
      <!-- 40 -->
      <defs>
       <path d="M 37.796875 64.3125 
L 12.890625 25.390625 
L 37.796875 25.390625 
z
M 35.203125 72.90625 
L 47.609375 72.90625 
L 47.609375 25.390625 
L 58.015625 25.390625 
L 58.015625 17.1875 
L 47.609375 17.1875 
L 47.609375 0 
L 37.796875 0 
L 37.796875 17.1875 
L 4.890625 17.1875 
L 4.890625 26.703125 
z
" id="DejaVuSans-52"/>
      </defs>
      <g transform="translate(224.823567 144.718437)scale(0.1 -0.1)">
       <use xlink:href="#DejaVuSans-52"/>
       <use x="63.623047" xlink:href="#DejaVuSans-48"/>
      </g>
     </g>
    </g>
    <g id="xtick_6">
     <g id="line2d_6">
      <g>
       <use style="stroke:#000000;stroke-width:0.8;" x="273.928182" xlink:href="#mbcd5fd5c8c" y="130.12"/>
      </g>
     </g>
     <g id="text_6">
      <!-- 50 -->
      <defs>
       <path d="M 10.796875 72.90625 
L 49.515625 72.90625 
L 49.515625 64.59375 
L 19.828125 64.59375 
L 19.828125 46.734375 
Q 21.96875 47.46875 24.109375 47.828125 
Q 26.265625 48.1875 28.421875 48.1875 
Q 40.625 48.1875 47.75 41.5 
Q 54.890625 34.8125 54.890625 23.390625 
Q 54.890625 11.625 47.5625 5.09375 
Q 40.234375 -1.421875 26.90625 -1.421875 
Q 22.3125 -1.421875 17.546875 -0.640625 
Q 12.796875 0.140625 7.71875 1.703125 
L 7.71875 11.625 
Q 12.109375 9.234375 16.796875 8.0625 
Q 21.484375 6.890625 26.703125 6.890625 
Q 35.15625 6.890625 40.078125 11.328125 
Q 45.015625 15.765625 45.015625 23.390625 
Q 45.015625 31 40.078125 35.4375 
Q 35.15625 39.890625 26.703125 39.890625 
Q 22.75 39.890625 18.8125 39.015625 
Q 14.890625 38.140625 10.796875 36.28125 
z
" id="DejaVuSans-53"/>
      </defs>
      <g transform="translate(267.565682 144.718437)scale(0.1 -0.1)">
       <use xlink:href="#DejaVuSans-53"/>
       <use x="63.623047" xlink:href="#DejaVuSans-48"/>
      </g>
     </g>
    </g>
    <g id="text_7">
     <!-- Epochs -->
     <defs>
      <path d="M 9.8125 72.90625 
L 55.90625 72.90625 
L 55.90625 64.59375 
L 19.671875 64.59375 
L 19.671875 43.015625 
L 54.390625 43.015625 
L 54.390625 34.71875 
L 19.671875 34.71875 
L 19.671875 8.296875 
L 56.78125 8.296875 
L 56.78125 0 
L 9.8125 0 
z
" id="DejaVuSans-69"/>
      <path d="M 18.109375 8.203125 
L 18.109375 -20.796875 
L 9.078125 -20.796875 
L 9.078125 54.6875 
L 18.109375 54.6875 
L 18.109375 46.390625 
Q 20.953125 51.265625 25.265625 53.625 
Q 29.59375 56 35.59375 56 
Q 45.5625 56 51.78125 48.09375 
Q 58.015625 40.1875 58.015625 27.296875 
Q 58.015625 14.40625 51.78125 6.484375 
Q 45.5625 -1.421875 35.59375 -1.421875 
Q 29.59375 -1.421875 25.265625 0.953125 
Q 20.953125 3.328125 18.109375 8.203125 
z
M 48.6875 27.296875 
Q 48.6875 37.203125 44.609375 42.84375 
Q 40.53125 48.484375 33.40625 48.484375 
Q 26.265625 48.484375 22.1875 42.84375 
Q 18.109375 37.203125 18.109375 27.296875 
Q 18.109375 17.390625 22.1875 11.75 
Q 26.265625 6.109375 33.40625 6.109375 
Q 40.53125 6.109375 44.609375 11.75 
Q 48.6875 17.390625 48.6875 27.296875 
z
" id="DejaVuSans-112"/>
      <path d="M 30.609375 48.390625 
Q 23.390625 48.390625 19.1875 42.75 
Q 14.984375 37.109375 14.984375 27.296875 
Q 14.984375 17.484375 19.15625 11.84375 
Q 23.34375 6.203125 30.609375 6.203125 
Q 37.796875 6.203125 41.984375 11.859375 
Q 46.1875 17.53125 46.1875 27.296875 
Q 46.1875 37.015625 41.984375 42.703125 
Q 37.796875 48.390625 30.609375 48.390625 
z
M 30.609375 56 
Q 42.328125 56 49.015625 48.375 
Q 55.71875 40.765625 55.71875 27.296875 
Q 55.71875 13.875 49.015625 6.21875 
Q 42.328125 -1.421875 30.609375 -1.421875 
Q 18.84375 -1.421875 12.171875 6.21875 
Q 5.515625 13.875 5.515625 27.296875 
Q 5.515625 40.765625 12.171875 48.375 
Q 18.84375 56 30.609375 56 
z
" id="DejaVuSans-111"/>
      <path d="M 48.78125 52.59375 
L 48.78125 44.1875 
Q 44.96875 46.296875 41.140625 47.34375 
Q 37.3125 48.390625 33.40625 48.390625 
Q 24.65625 48.390625 19.8125 42.84375 
Q 14.984375 37.3125 14.984375 27.296875 
Q 14.984375 17.28125 19.8125 11.734375 
Q 24.65625 6.203125 33.40625 6.203125 
Q 37.3125 6.203125 41.140625 7.25 
Q 44.96875 8.296875 48.78125 10.40625 
L 48.78125 2.09375 
Q 45.015625 0.34375 40.984375 -0.53125 
Q 36.96875 -1.421875 32.421875 -1.421875 
Q 20.0625 -1.421875 12.78125 6.34375 
Q 5.515625 14.109375 5.515625 27.296875 
Q 5.515625 40.671875 12.859375 48.328125 
Q 20.21875 56 33.015625 56 
Q 37.15625 56 41.109375 55.140625 
Q 45.0625 54.296875 48.78125 52.59375 
z
" id="DejaVuSans-99"/>
      <path d="M 54.890625 33.015625 
L 54.890625 0 
L 45.90625 0 
L 45.90625 32.71875 
Q 45.90625 40.484375 42.875 44.328125 
Q 39.84375 48.1875 33.796875 48.1875 
Q 26.515625 48.1875 22.3125 43.546875 
Q 18.109375 38.921875 18.109375 30.90625 
L 18.109375 0 
L 9.078125 0 
L 9.078125 75.984375 
L 18.109375 75.984375 
L 18.109375 46.1875 
Q 21.34375 51.125 25.703125 53.5625 
Q 30.078125 56 35.796875 56 
Q 45.21875 56 50.046875 50.171875 
Q 54.890625 44.34375 54.890625 33.015625 
z
" id="DejaVuSans-104"/>
      <path d="M 44.28125 53.078125 
L 44.28125 44.578125 
Q 40.484375 46.53125 36.375 47.5 
Q 32.28125 48.484375 27.875 48.484375 
Q 21.1875 48.484375 17.84375 46.4375 
Q 14.5 44.390625 14.5 40.28125 
Q 14.5 37.15625 16.890625 35.375 
Q 19.28125 33.59375 26.515625 31.984375 
L 29.59375 31.296875 
Q 39.15625 29.25 43.1875 25.515625 
Q 47.21875 21.78125 47.21875 15.09375 
Q 47.21875 7.46875 41.1875 3.015625 
Q 35.15625 -1.421875 24.609375 -1.421875 
Q 20.21875 -1.421875 15.453125 -0.5625 
Q 10.6875 0.296875 5.421875 2 
L 5.421875 11.28125 
Q 10.40625 8.6875 15.234375 7.390625 
Q 20.0625 6.109375 24.8125 6.109375 
Q 31.15625 6.109375 34.5625 8.28125 
Q 37.984375 10.453125 37.984375 14.40625 
Q 37.984375 18.0625 35.515625 20.015625 
Q 33.0625 21.96875 24.703125 23.78125 
L 21.578125 24.515625 
Q 13.234375 26.265625 9.515625 29.90625 
Q 5.8125 33.546875 5.8125 39.890625 
Q 5.8125 47.609375 11.28125 51.796875 
Q 16.75 56 26.8125 56 
Q 31.78125 56 36.171875 55.265625 
Q 40.578125 54.546875 44.28125 53.078125 
z
" id="DejaVuSans-115"/>
     </defs>
     <g transform="translate(151.294375 158.396563)scale(0.1 -0.1)">
      <use xlink:href="#DejaVuSans-69"/>
      <use x="63.183594" xlink:href="#DejaVuSans-112"/>
      <use x="126.660156" xlink:href="#DejaVuSans-111"/>
      <use x="187.841797" xlink:href="#DejaVuSans-99"/>
      <use x="242.822266" xlink:href="#DejaVuSans-104"/>
      <use x="306.201172" xlink:href="#DejaVuSans-115"/>
     </g>
    </g>
   </g>
   <g id="matplotlib.axis_2">
    <g id="ytick_1">
     <g id="line2d_7">
      <defs>
       <path d="M 0 0 
L -3.5 0 
" id="mf2db475bea" style="stroke:#000000;stroke-width:0.8;"/>
      </defs>
      <g>
       <use style="stroke:#000000;stroke-width:0.8;" x="54.02" xlink:href="#mf2db475bea" y="125.558634"/>
      </g>
     </g>
     <g id="text_8">
      <!-- 0.00 -->
      <defs>
       <path d="M 10.6875 12.40625 
L 21 12.40625 
L 21 0 
L 10.6875 0 
z
" id="DejaVuSans-46"/>
      </defs>
      <g transform="translate(24.754375 129.357852)scale(0.1 -0.1)">
       <use xlink:href="#DejaVuSans-48"/>
       <use x="63.623047" xlink:href="#DejaVuSans-46"/>
       <use x="95.410156" xlink:href="#DejaVuSans-48"/>
       <use x="159.033203" xlink:href="#DejaVuSans-48"/>
      </g>
     </g>
    </g>
    <g id="ytick_2">
     <g id="line2d_8">
      <g>
       <use style="stroke:#000000;stroke-width:0.8;" x="54.02" xlink:href="#mf2db475bea" y="100.373359"/>
      </g>
     </g>
     <g id="text_9">
      <!-- 0.01 -->
      <g transform="translate(24.754375 104.172578)scale(0.1 -0.1)">
       <use xlink:href="#DejaVuSans-48"/>
       <use x="63.623047" xlink:href="#DejaVuSans-46"/>
       <use x="95.410156" xlink:href="#DejaVuSans-48"/>
       <use x="159.033203" xlink:href="#DejaVuSans-49"/>
      </g>
     </g>
    </g>
    <g id="ytick_3">
     <g id="line2d_9">
      <g>
       <use style="stroke:#000000;stroke-width:0.8;" x="54.02" xlink:href="#mf2db475bea" y="75.188085"/>
      </g>
     </g>
     <g id="text_10">
      <!-- 0.02 -->
      <g transform="translate(24.754375 78.987304)scale(0.1 -0.1)">
       <use xlink:href="#DejaVuSans-48"/>
       <use x="63.623047" xlink:href="#DejaVuSans-46"/>
       <use x="95.410156" xlink:href="#DejaVuSans-48"/>
       <use x="159.033203" xlink:href="#DejaVuSans-50"/>
      </g>
     </g>
    </g>
    <g id="ytick_4">
     <g id="line2d_10">
      <g>
       <use style="stroke:#000000;stroke-width:0.8;" x="54.02" xlink:href="#mf2db475bea" y="50.002811"/>
      </g>
     </g>
     <g id="text_11">
      <!-- 0.03 -->
      <g transform="translate(24.754375 53.80203)scale(0.1 -0.1)">
       <use xlink:href="#DejaVuSans-48"/>
       <use x="63.623047" xlink:href="#DejaVuSans-46"/>
       <use x="95.410156" xlink:href="#DejaVuSans-48"/>
       <use x="159.033203" xlink:href="#DejaVuSans-51"/>
      </g>
     </g>
    </g>
    <g id="text_12">
     <!-- Loss -->
     <defs>
      <path d="M 9.8125 72.90625 
L 19.671875 72.90625 
L 19.671875 8.296875 
L 55.171875 8.296875 
L 55.171875 0 
L 9.8125 0 
z
" id="DejaVuSans-76"/>
     </defs>
     <g transform="translate(18.674688 88.833906)rotate(-90)scale(0.1 -0.1)">
      <use xlink:href="#DejaVuSans-76"/>
      <use x="55.697266" xlink:href="#DejaVuSans-111"/>
      <use x="116.878906" xlink:href="#DejaVuSans-115"/>
      <use x="168.978516" xlink:href="#DejaVuSans-115"/>
     </g>
    </g>
   </g>
   <g id="line2d_11">
    <path clip-path="url(#p55ab0d049a)" d="M 64.491818 30.198182 
L 68.76603 56.923073 
L 73.040241 42.471473 
L 77.314453 80.742263 
L 81.588664 96.077708 
L 85.862876 96.10262 
L 90.137087 100.328358 
L 94.411299 98.56637 
L 98.68551 91.576039 
L 102.959722 93.829014 
L 107.233933 113.957281 
L 111.508145 105.813378 
L 115.782356 101.581139 
L 120.056568 110.259934 
L 124.330779 115.150136 
L 128.604991 114.129312 
L 132.879202 115.775969 
L 137.153414 107.105332 
L 141.427625 115.744967 
L 145.701837 120.169414 
L 149.976048 117.788066 
L 154.25026 119.441887 
L 158.524471 114.686288 
L 162.798683 118.866492 
L 167.072894 115.304049 
L 171.347106 122.621965 
L 175.621317 121.381977 
L 179.895529 123.185481 
L 184.16974 118.187998 
L 188.443952 121.733526 
L 192.718163 123.620311 
L 196.992375 109.271233 
L 201.266586 121.65052 
L 205.540798 124.272761 
L 209.815009 123.872 
L 214.089221 124.443156 
L 218.363432 123.484773 
L 222.637644 110.95981 
L 226.911855 124.501079 
L 231.186067 121.182835 
L 235.460278 124.920144 
L 239.73449 125.171239 
L 244.008701 125.058701 
L 248.282913 124.948751 
L 252.557124 125.266678 
L 256.831336 125.202938 
L 261.105547 122.185054 
L 265.379759 124.422019 
L 269.65397 125.317754 
L 273.928182 125.361818 
" style="fill:none;stroke:#008000;stroke-linecap:square;stroke-width:1.5;"/>
    <defs>
     <path d="M 0 1.5 
C 0.397805 1.5 0.77937 1.341951 1.06066 1.06066 
C 1.341951 0.77937 1.5 0.397805 1.5 0 
C 1.5 -0.397805 1.341951 -0.77937 1.06066 -1.06066 
C 0.77937 -1.341951 0.397805 -1.5 0 -1.5 
C -0.397805 -1.5 -0.77937 -1.341951 -1.06066 -1.06066 
C -1.341951 -0.77937 -1.5 -0.397805 -1.5 0 
C -1.5 0.397805 -1.341951 0.77937 -1.06066 1.06066 
C -0.77937 1.341951 -0.397805 1.5 0 1.5 
z
" id="m464adf1fe7" style="stroke:#008000;"/>
    </defs>
    <g clip-path="url(#p55ab0d049a)">
     <use style="fill:#008000;stroke:#008000;" x="64.491818" xlink:href="#m464adf1fe7" y="30.198182"/>
     <use style="fill:#008000;stroke:#008000;" x="68.76603" xlink:href="#m464adf1fe7" y="56.923073"/>
     <use style="fill:#008000;stroke:#008000;" x="73.040241" xlink:href="#m464adf1fe7" y="42.471473"/>
     <use style="fill:#008000;stroke:#008000;" x="77.314453" xlink:href="#m464adf1fe7" y="80.742263"/>
     <use style="fill:#008000;stroke:#008000;" x="81.588664" xlink:href="#m464adf1fe7" y="96.077708"/>
     <use style="fill:#008000;stroke:#008000;" x="85.862876" xlink:href="#m464adf1fe7" y="96.10262"/>
     <use style="fill:#008000;stroke:#008000;" x="90.137087" xlink:href="#m464adf1fe7" y="100.328358"/>
     <use style="fill:#008000;stroke:#008000;" x="94.411299" xlink:href="#m464adf1fe7" y="98.56637"/>
     <use style="fill:#008000;stroke:#008000;" x="98.68551" xlink:href="#m464adf1fe7" y="91.576039"/>
     <use style="fill:#008000;stroke:#008000;" x="102.959722" xlink:href="#m464adf1fe7" y="93.829014"/>
     <use style="fill:#008000;stroke:#008000;" x="107.233933" xlink:href="#m464adf1fe7" y="113.957281"/>
     <use style="fill:#008000;stroke:#008000;" x="111.508145" xlink:href="#m464adf1fe7" y="105.813378"/>
     <use style="fill:#008000;stroke:#008000;" x="115.782356" xlink:href="#m464adf1fe7" y="101.581139"/>
     <use style="fill:#008000;stroke:#008000;" x="120.056568" xlink:href="#m464adf1fe7" y="110.259934"/>
     <use style="fill:#008000;stroke:#008000;" x="124.330779" xlink:href="#m464adf1fe7" y="115.150136"/>
     <use style="fill:#008000;stroke:#008000;" x="128.604991" xlink:href="#m464adf1fe7" y="114.129312"/>
     <use style="fill:#008000;stroke:#008000;" x="132.879202" xlink:href="#m464adf1fe7" y="115.775969"/>
     <use style="fill:#008000;stroke:#008000;" x="137.153414" xlink:href="#m464adf1fe7" y="107.105332"/>
     <use style="fill:#008000;stroke:#008000;" x="141.427625" xlink:href="#m464adf1fe7" y="115.744967"/>
     <use style="fill:#008000;stroke:#008000;" x="145.701837" xlink:href="#m464adf1fe7" y="120.169414"/>
     <use style="fill:#008000;stroke:#008000;" x="149.976048" xlink:href="#m464adf1fe7" y="117.788066"/>
     <use style="fill:#008000;stroke:#008000;" x="154.25026" xlink:href="#m464adf1fe7" y="119.441887"/>
     <use style="fill:#008000;stroke:#008000;" x="158.524471" xlink:href="#m464adf1fe7" y="114.686288"/>
     <use style="fill:#008000;stroke:#008000;" x="162.798683" xlink:href="#m464adf1fe7" y="118.866492"/>
     <use style="fill:#008000;stroke:#008000;" x="167.072894" xlink:href="#m464adf1fe7" y="115.304049"/>
     <use style="fill:#008000;stroke:#008000;" x="171.347106" xlink:href="#m464adf1fe7" y="122.621965"/>
     <use style="fill:#008000;stroke:#008000;" x="175.621317" xlink:href="#m464adf1fe7" y="121.381977"/>
     <use style="fill:#008000;stroke:#008000;" x="179.895529" xlink:href="#m464adf1fe7" y="123.185481"/>
     <use style="fill:#008000;stroke:#008000;" x="184.16974" xlink:href="#m464adf1fe7" y="118.187998"/>
     <use style="fill:#008000;stroke:#008000;" x="188.443952" xlink:href="#m464adf1fe7" y="121.733526"/>
     <use style="fill:#008000;stroke:#008000;" x="192.718163" xlink:href="#m464adf1fe7" y="123.620311"/>
     <use style="fill:#008000;stroke:#008000;" x="196.992375" xlink:href="#m464adf1fe7" y="109.271233"/>
     <use style="fill:#008000;stroke:#008000;" x="201.266586" xlink:href="#m464adf1fe7" y="121.65052"/>
     <use style="fill:#008000;stroke:#008000;" x="205.540798" xlink:href="#m464adf1fe7" y="124.272761"/>
     <use style="fill:#008000;stroke:#008000;" x="209.815009" xlink:href="#m464adf1fe7" y="123.872"/>
     <use style="fill:#008000;stroke:#008000;" x="214.089221" xlink:href="#m464adf1fe7" y="124.443156"/>
     <use style="fill:#008000;stroke:#008000;" x="218.363432" xlink:href="#m464adf1fe7" y="123.484773"/>
     <use style="fill:#008000;stroke:#008000;" x="222.637644" xlink:href="#m464adf1fe7" y="110.95981"/>
     <use style="fill:#008000;stroke:#008000;" x="226.911855" xlink:href="#m464adf1fe7" y="124.501079"/>
     <use style="fill:#008000;stroke:#008000;" x="231.186067" xlink:href="#m464adf1fe7" y="121.182835"/>
     <use style="fill:#008000;stroke:#008000;" x="235.460278" xlink:href="#m464adf1fe7" y="124.920144"/>
     <use style="fill:#008000;stroke:#008000;" x="239.73449" xlink:href="#m464adf1fe7" y="125.171239"/>
     <use style="fill:#008000;stroke:#008000;" x="244.008701" xlink:href="#m464adf1fe7" y="125.058701"/>
     <use style="fill:#008000;stroke:#008000;" x="248.282913" xlink:href="#m464adf1fe7" y="124.948751"/>
     <use style="fill:#008000;stroke:#008000;" x="252.557124" xlink:href="#m464adf1fe7" y="125.266678"/>
     <use style="fill:#008000;stroke:#008000;" x="256.831336" xlink:href="#m464adf1fe7" y="125.202938"/>
     <use style="fill:#008000;stroke:#008000;" x="261.105547" xlink:href="#m464adf1fe7" y="122.185054"/>
     <use style="fill:#008000;stroke:#008000;" x="265.379759" xlink:href="#m464adf1fe7" y="124.422019"/>
     <use style="fill:#008000;stroke:#008000;" x="269.65397" xlink:href="#m464adf1fe7" y="125.317754"/>
     <use style="fill:#008000;stroke:#008000;" x="273.928182" xlink:href="#m464adf1fe7" y="125.361818"/>
    </g>
   </g>
   <g id="line2d_12">
    <path clip-path="url(#p55ab0d049a)" d="M 64.491818 40.699739 
L 68.76603 64.296997 
L 73.040241 74.119674 
L 77.314453 79.595725 
L 81.588664 83.970403 
L 85.862876 86.120242 
L 90.137087 88.399822 
L 94.411299 88.71781 
L 98.68551 90.366873 
L 102.959722 90.914977 
L 107.233933 90.663036 
L 111.508145 93.158701 
L 115.782356 93.750761 
L 120.056568 94.444442 
L 124.330779 94.484612 
L 128.604991 94.853128 
L 132.879202 95.008803 
L 137.153414 95.686581 
L 141.427625 95.263439 
L 145.701837 95.193054 
L 149.976048 96.387824 
L 154.25026 96.989409 
L 158.524471 96.667361 
L 162.798683 96.699599 
L 167.072894 97.4748 
L 171.347106 97.283758 
L 175.621317 98.175747 
L 179.895529 98.023694 
L 184.16974 98.031598 
L 188.443952 98.472606 
L 192.718163 98.39346 
L 196.992375 98.510187 
L 201.266586 98.599421 
L 205.540798 98.740347 
L 209.815009 98.258168 
L 214.089221 98.992995 
L 218.363432 98.812938 
L 222.637644 98.854456 
L 226.911855 98.775104 
L 231.186067 98.89181 
L 235.460278 99.09099 
L 239.73449 98.830473 
L 244.008701 98.979088 
L 248.282913 99.193503 
L 252.557124 98.901715 
L 256.831336 99.17551 
L 261.105547 99.165994 
L 265.379759 98.661602 
L 269.65397 98.523395 
L 273.928182 98.869093 
" style="fill:none;stroke:#0000ff;stroke-linecap:square;stroke-width:1.5;"/>
    <defs>
     <path d="M 0 1.5 
C 0.397805 1.5 0.77937 1.341951 1.06066 1.06066 
C 1.341951 0.77937 1.5 0.397805 1.5 0 
C 1.5 -0.397805 1.341951 -0.77937 1.06066 -1.06066 
C 0.77937 -1.341951 0.397805 -1.5 0 -1.5 
C -0.397805 -1.5 -0.77937 -1.341951 -1.06066 -1.06066 
C -1.341951 -0.77937 -1.5 -0.397805 -1.5 0 
C -1.5 0.397805 -1.341951 0.77937 -1.06066 1.06066 
C -0.77937 1.341951 -0.397805 1.5 0 1.5 
z
" id="mf4acfa897f" style="stroke:#0000ff;"/>
    </defs>
    <g clip-path="url(#p55ab0d049a)">
     <use style="fill:#0000ff;stroke:#0000ff;" x="64.491818" xlink:href="#mf4acfa897f" y="40.699739"/>
     <use style="fill:#0000ff;stroke:#0000ff;" x="68.76603" xlink:href="#mf4acfa897f" y="64.296997"/>
     <use style="fill:#0000ff;stroke:#0000ff;" x="73.040241" xlink:href="#mf4acfa897f" y="74.119674"/>
     <use style="fill:#0000ff;stroke:#0000ff;" x="77.314453" xlink:href="#mf4acfa897f" y="79.595725"/>
     <use style="fill:#0000ff;stroke:#0000ff;" x="81.588664" xlink:href="#mf4acfa897f" y="83.970403"/>
     <use style="fill:#0000ff;stroke:#0000ff;" x="85.862876" xlink:href="#mf4acfa897f" y="86.120242"/>
     <use style="fill:#0000ff;stroke:#0000ff;" x="90.137087" xlink:href="#mf4acfa897f" y="88.399822"/>
     <use style="fill:#0000ff;stroke:#0000ff;" x="94.411299" xlink:href="#mf4acfa897f" y="88.71781"/>
     <use style="fill:#0000ff;stroke:#0000ff;" x="98.68551" xlink:href="#mf4acfa897f" y="90.366873"/>
     <use style="fill:#0000ff;stroke:#0000ff;" x="102.959722" xlink:href="#mf4acfa897f" y="90.914977"/>
     <use style="fill:#0000ff;stroke:#0000ff;" x="107.233933" xlink:href="#mf4acfa897f" y="90.663036"/>
     <use style="fill:#0000ff;stroke:#0000ff;" x="111.508145" xlink:href="#mf4acfa897f" y="93.158701"/>
     <use style="fill:#0000ff;stroke:#0000ff;" x="115.782356" xlink:href="#mf4acfa897f" y="93.750761"/>
     <use style="fill:#0000ff;stroke:#0000ff;" x="120.056568" xlink:href="#mf4acfa897f" y="94.444442"/>
     <use style="fill:#0000ff;stroke:#0000ff;" x="124.330779" xlink:href="#mf4acfa897f" y="94.484612"/>
     <use style="fill:#0000ff;stroke:#0000ff;" x="128.604991" xlink:href="#mf4acfa897f" y="94.853128"/>
     <use style="fill:#0000ff;stroke:#0000ff;" x="132.879202" xlink:href="#mf4acfa897f" y="95.008803"/>
     <use style="fill:#0000ff;stroke:#0000ff;" x="137.153414" xlink:href="#mf4acfa897f" y="95.686581"/>
     <use style="fill:#0000ff;stroke:#0000ff;" x="141.427625" xlink:href="#mf4acfa897f" y="95.263439"/>
     <use style="fill:#0000ff;stroke:#0000ff;" x="145.701837" xlink:href="#mf4acfa897f" y="95.193054"/>
     <use style="fill:#0000ff;stroke:#0000ff;" x="149.976048" xlink:href="#mf4acfa897f" y="96.387824"/>
     <use style="fill:#0000ff;stroke:#0000ff;" x="154.25026" xlink:href="#mf4acfa897f" y="96.989409"/>
     <use style="fill:#0000ff;stroke:#0000ff;" x="158.524471" xlink:href="#mf4acfa897f" y="96.667361"/>
     <use style="fill:#0000ff;stroke:#0000ff;" x="162.798683" xlink:href="#mf4acfa897f" y="96.699599"/>
     <use style="fill:#0000ff;stroke:#0000ff;" x="167.072894" xlink:href="#mf4acfa897f" y="97.4748"/>
     <use style="fill:#0000ff;stroke:#0000ff;" x="171.347106" xlink:href="#mf4acfa897f" y="97.283758"/>
     <use style="fill:#0000ff;stroke:#0000ff;" x="175.621317" xlink:href="#mf4acfa897f" y="98.175747"/>
     <use style="fill:#0000ff;stroke:#0000ff;" x="179.895529" xlink:href="#mf4acfa897f" y="98.023694"/>
     <use style="fill:#0000ff;stroke:#0000ff;" x="184.16974" xlink:href="#mf4acfa897f" y="98.031598"/>
     <use style="fill:#0000ff;stroke:#0000ff;" x="188.443952" xlink:href="#mf4acfa897f" y="98.472606"/>
     <use style="fill:#0000ff;stroke:#0000ff;" x="192.718163" xlink:href="#mf4acfa897f" y="98.39346"/>
     <use style="fill:#0000ff;stroke:#0000ff;" x="196.992375" xlink:href="#mf4acfa897f" y="98.510187"/>
     <use style="fill:#0000ff;stroke:#0000ff;" x="201.266586" xlink:href="#mf4acfa897f" y="98.599421"/>
     <use style="fill:#0000ff;stroke:#0000ff;" x="205.540798" xlink:href="#mf4acfa897f" y="98.740347"/>
     <use style="fill:#0000ff;stroke:#0000ff;" x="209.815009" xlink:href="#mf4acfa897f" y="98.258168"/>
     <use style="fill:#0000ff;stroke:#0000ff;" x="214.089221" xlink:href="#mf4acfa897f" y="98.992995"/>
     <use style="fill:#0000ff;stroke:#0000ff;" x="218.363432" xlink:href="#mf4acfa897f" y="98.812938"/>
     <use style="fill:#0000ff;stroke:#0000ff;" x="222.637644" xlink:href="#mf4acfa897f" y="98.854456"/>
     <use style="fill:#0000ff;stroke:#0000ff;" x="226.911855" xlink:href="#mf4acfa897f" y="98.775104"/>
     <use style="fill:#0000ff;stroke:#0000ff;" x="231.186067" xlink:href="#mf4acfa897f" y="98.89181"/>
     <use style="fill:#0000ff;stroke:#0000ff;" x="235.460278" xlink:href="#mf4acfa897f" y="99.09099"/>
     <use style="fill:#0000ff;stroke:#0000ff;" x="239.73449" xlink:href="#mf4acfa897f" y="98.830473"/>
     <use style="fill:#0000ff;stroke:#0000ff;" x="244.008701" xlink:href="#mf4acfa897f" y="98.979088"/>
     <use style="fill:#0000ff;stroke:#0000ff;" x="248.282913" xlink:href="#mf4acfa897f" y="99.193503"/>
     <use style="fill:#0000ff;stroke:#0000ff;" x="252.557124" xlink:href="#mf4acfa897f" y="98.901715"/>
     <use style="fill:#0000ff;stroke:#0000ff;" x="256.831336" xlink:href="#mf4acfa897f" y="99.17551"/>
     <use style="fill:#0000ff;stroke:#0000ff;" x="261.105547" xlink:href="#mf4acfa897f" y="99.165994"/>
     <use style="fill:#0000ff;stroke:#0000ff;" x="265.379759" xlink:href="#mf4acfa897f" y="98.661602"/>
     <use style="fill:#0000ff;stroke:#0000ff;" x="269.65397" xlink:href="#mf4acfa897f" y="98.523395"/>
     <use style="fill:#0000ff;stroke:#0000ff;" x="273.928182" xlink:href="#mf4acfa897f" y="98.869093"/>
    </g>
   </g>
   <g id="patch_3">
    <path d="M 54.02 130.12 
L 54.02 25.44 
" style="fill:none;stroke:#000000;stroke-linecap:square;stroke-linejoin:miter;stroke-width:0.8;"/>
   </g>
   <g id="patch_4">
    <path d="M 284.4 130.12 
L 284.4 25.44 
" style="fill:none;stroke:#000000;stroke-linecap:square;stroke-linejoin:miter;stroke-width:0.8;"/>
   </g>
   <g id="patch_5">
    <path d="M 54.02 130.12 
L 284.4 130.12 
" style="fill:none;stroke:#000000;stroke-linecap:square;stroke-linejoin:miter;stroke-width:0.8;"/>
   </g>
   <g id="patch_6">
    <path d="M 54.02 25.44 
L 284.4 25.44 
" style="fill:none;stroke:#000000;stroke-linecap:square;stroke-linejoin:miter;stroke-width:0.8;"/>
   </g>
   <g id="text_13">
    <!-- VNET3 -->
    <defs>
     <path d="M 28.609375 0 
L 0.78125 72.90625 
L 11.078125 72.90625 
L 34.1875 11.53125 
L 57.328125 72.90625 
L 67.578125 72.90625 
L 39.796875 0 
z
" id="DejaVuSans-86"/>
     <path d="M 9.8125 72.90625 
L 23.09375 72.90625 
L 55.421875 11.921875 
L 55.421875 72.90625 
L 64.984375 72.90625 
L 64.984375 0 
L 51.703125 0 
L 19.390625 60.984375 
L 19.390625 0 
L 9.8125 0 
z
" id="DejaVuSans-78"/>
     <path d="M -0.296875 72.90625 
L 61.375 72.90625 
L 61.375 64.59375 
L 35.5 64.59375 
L 35.5 0 
L 25.59375 0 
L 25.59375 64.59375 
L -0.296875 64.59375 
z
" id="DejaVuSans-84"/>
    </defs>
    <g transform="translate(149.343437 19.44)scale(0.12 -0.12)">
     <use xlink:href="#DejaVuSans-86"/>
     <use x="68.408203" xlink:href="#DejaVuSans-78"/>
     <use x="143.212891" xlink:href="#DejaVuSans-69"/>
     <use x="206.396484" xlink:href="#DejaVuSans-84"/>
     <use x="267.480469" xlink:href="#DejaVuSans-51"/>
    </g>
   </g>
   <g id="legend_1">
    <g id="patch_7">
     <path d="M 172.760937 62.79625 
L 277.4 62.79625 
Q 279.4 62.79625 279.4 60.79625 
L 279.4 32.44 
Q 279.4 30.44 277.4 30.44 
L 172.760937 30.44 
Q 170.760937 30.44 170.760937 32.44 
L 170.760937 60.79625 
Q 170.760937 62.79625 172.760937 62.79625 
z
" style="fill:#ffffff;opacity:0.8;stroke:#cccccc;stroke-linejoin:miter;"/>
    </g>
    <g id="line2d_13">
     <path d="M 174.760937 38.538438 
L 194.760937 38.538438 
" style="fill:none;stroke:#008000;stroke-linecap:square;stroke-width:1.5;"/>
    </g>
    <g id="line2d_14">
     <g>
      <use style="fill:#008000;stroke:#008000;" x="184.760937" xlink:href="#m464adf1fe7" y="38.538438"/>
     </g>
    </g>
    <g id="text_14">
     <!-- Training loss -->
     <defs>
      <path d="M 41.109375 46.296875 
Q 39.59375 47.171875 37.8125 47.578125 
Q 36.03125 48 33.890625 48 
Q 26.265625 48 22.1875 43.046875 
Q 18.109375 38.09375 18.109375 28.8125 
L 18.109375 0 
L 9.078125 0 
L 9.078125 54.6875 
L 18.109375 54.6875 
L 18.109375 46.1875 
Q 20.953125 51.171875 25.484375 53.578125 
Q 30.03125 56 36.53125 56 
Q 37.453125 56 38.578125 55.875 
Q 39.703125 55.765625 41.0625 55.515625 
z
" id="DejaVuSans-114"/>
      <path d="M 34.28125 27.484375 
Q 23.390625 27.484375 19.1875 25 
Q 14.984375 22.515625 14.984375 16.5 
Q 14.984375 11.71875 18.140625 8.90625 
Q 21.296875 6.109375 26.703125 6.109375 
Q 34.1875 6.109375 38.703125 11.40625 
Q 43.21875 16.703125 43.21875 25.484375 
L 43.21875 27.484375 
z
M 52.203125 31.203125 
L 52.203125 0 
L 43.21875 0 
L 43.21875 8.296875 
Q 40.140625 3.328125 35.546875 0.953125 
Q 30.953125 -1.421875 24.3125 -1.421875 
Q 15.921875 -1.421875 10.953125 3.296875 
Q 6 8.015625 6 15.921875 
Q 6 25.140625 12.171875 29.828125 
Q 18.359375 34.515625 30.609375 34.515625 
L 43.21875 34.515625 
L 43.21875 35.40625 
Q 43.21875 41.609375 39.140625 45 
Q 35.0625 48.390625 27.6875 48.390625 
Q 23 48.390625 18.546875 47.265625 
Q 14.109375 46.140625 10.015625 43.890625 
L 10.015625 52.203125 
Q 14.9375 54.109375 19.578125 55.046875 
Q 24.21875 56 28.609375 56 
Q 40.484375 56 46.34375 49.84375 
Q 52.203125 43.703125 52.203125 31.203125 
z
" id="DejaVuSans-97"/>
      <path d="M 9.421875 54.6875 
L 18.40625 54.6875 
L 18.40625 0 
L 9.421875 0 
z
M 9.421875 75.984375 
L 18.40625 75.984375 
L 18.40625 64.59375 
L 9.421875 64.59375 
z
" id="DejaVuSans-105"/>
      <path d="M 54.890625 33.015625 
L 54.890625 0 
L 45.90625 0 
L 45.90625 32.71875 
Q 45.90625 40.484375 42.875 44.328125 
Q 39.84375 48.1875 33.796875 48.1875 
Q 26.515625 48.1875 22.3125 43.546875 
Q 18.109375 38.921875 18.109375 30.90625 
L 18.109375 0 
L 9.078125 0 
L 9.078125 54.6875 
L 18.109375 54.6875 
L 18.109375 46.1875 
Q 21.34375 51.125 25.703125 53.5625 
Q 30.078125 56 35.796875 56 
Q 45.21875 56 50.046875 50.171875 
Q 54.890625 44.34375 54.890625 33.015625 
z
" id="DejaVuSans-110"/>
      <path d="M 45.40625 27.984375 
Q 45.40625 37.75 41.375 43.109375 
Q 37.359375 48.484375 30.078125 48.484375 
Q 22.859375 48.484375 18.828125 43.109375 
Q 14.796875 37.75 14.796875 27.984375 
Q 14.796875 18.265625 18.828125 12.890625 
Q 22.859375 7.515625 30.078125 7.515625 
Q 37.359375 7.515625 41.375 12.890625 
Q 45.40625 18.265625 45.40625 27.984375 
z
M 54.390625 6.78125 
Q 54.390625 -7.171875 48.1875 -13.984375 
Q 42 -20.796875 29.203125 -20.796875 
Q 24.46875 -20.796875 20.265625 -20.09375 
Q 16.0625 -19.390625 12.109375 -17.921875 
L 12.109375 -9.1875 
Q 16.0625 -11.328125 19.921875 -12.34375 
Q 23.78125 -13.375 27.78125 -13.375 
Q 36.625 -13.375 41.015625 -8.765625 
Q 45.40625 -4.15625 45.40625 5.171875 
L 45.40625 9.625 
Q 42.625 4.78125 38.28125 2.390625 
Q 33.9375 0 27.875 0 
Q 17.828125 0 11.671875 7.65625 
Q 5.515625 15.328125 5.515625 27.984375 
Q 5.515625 40.671875 11.671875 48.328125 
Q 17.828125 56 27.875 56 
Q 33.9375 56 38.28125 53.609375 
Q 42.625 51.21875 45.40625 46.390625 
L 45.40625 54.6875 
L 54.390625 54.6875 
z
" id="DejaVuSans-103"/>
      <path id="DejaVuSans-32"/>
      <path d="M 9.421875 75.984375 
L 18.40625 75.984375 
L 18.40625 0 
L 9.421875 0 
z
" id="DejaVuSans-108"/>
     </defs>
     <g transform="translate(202.760937 42.038438)scale(0.1 -0.1)">
      <use xlink:href="#DejaVuSans-84"/>
      <use x="60.865234" xlink:href="#DejaVuSans-114"/>
      <use x="101.978516" xlink:href="#DejaVuSans-97"/>
      <use x="163.257812" xlink:href="#DejaVuSans-105"/>
      <use x="191.041016" xlink:href="#DejaVuSans-110"/>
      <use x="254.419922" xlink:href="#DejaVuSans-105"/>
      <use x="282.203125" xlink:href="#DejaVuSans-110"/>
      <use x="345.582031" xlink:href="#DejaVuSans-103"/>
      <use x="409.058594" xlink:href="#DejaVuSans-32"/>
      <use x="440.845703" xlink:href="#DejaVuSans-108"/>
      <use x="468.628906" xlink:href="#DejaVuSans-111"/>
      <use x="529.810547" xlink:href="#DejaVuSans-115"/>
      <use x="581.910156" xlink:href="#DejaVuSans-115"/>
     </g>
    </g>
    <g id="line2d_15">
     <path d="M 174.760937 53.216563 
L 194.760937 53.216563 
" style="fill:none;stroke:#0000ff;stroke-linecap:square;stroke-width:1.5;"/>
    </g>
    <g id="line2d_16">
     <g>
      <use style="fill:#0000ff;stroke:#0000ff;" x="184.760937" xlink:href="#mf4acfa897f" y="53.216563"/>
     </g>
    </g>
    <g id="text_15">
     <!-- Validation loss -->
     <defs>
      <path d="M 45.40625 46.390625 
L 45.40625 75.984375 
L 54.390625 75.984375 
L 54.390625 0 
L 45.40625 0 
L 45.40625 8.203125 
Q 42.578125 3.328125 38.25 0.953125 
Q 33.9375 -1.421875 27.875 -1.421875 
Q 17.96875 -1.421875 11.734375 6.484375 
Q 5.515625 14.40625 5.515625 27.296875 
Q 5.515625 40.1875 11.734375 48.09375 
Q 17.96875 56 27.875 56 
Q 33.9375 56 38.25 53.625 
Q 42.578125 51.265625 45.40625 46.390625 
z
M 14.796875 27.296875 
Q 14.796875 17.390625 18.875 11.75 
Q 22.953125 6.109375 30.078125 6.109375 
Q 37.203125 6.109375 41.296875 11.75 
Q 45.40625 17.390625 45.40625 27.296875 
Q 45.40625 37.203125 41.296875 42.84375 
Q 37.203125 48.484375 30.078125 48.484375 
Q 22.953125 48.484375 18.875 42.84375 
Q 14.796875 37.203125 14.796875 27.296875 
z
" id="DejaVuSans-100"/>
      <path d="M 18.3125 70.21875 
L 18.3125 54.6875 
L 36.8125 54.6875 
L 36.8125 47.703125 
L 18.3125 47.703125 
L 18.3125 18.015625 
Q 18.3125 11.328125 20.140625 9.421875 
Q 21.96875 7.515625 27.59375 7.515625 
L 36.8125 7.515625 
L 36.8125 0 
L 27.59375 0 
Q 17.1875 0 13.234375 3.875 
Q 9.28125 7.765625 9.28125 18.015625 
L 9.28125 47.703125 
L 2.6875 47.703125 
L 2.6875 54.6875 
L 9.28125 54.6875 
L 9.28125 70.21875 
z
" id="DejaVuSans-116"/>
     </defs>
     <g transform="translate(202.760937 56.716563)scale(0.1 -0.1)">
      <use xlink:href="#DejaVuSans-86"/>
      <use x="68.298828" xlink:href="#DejaVuSans-97"/>
      <use x="129.578125" xlink:href="#DejaVuSans-108"/>
      <use x="157.361328" xlink:href="#DejaVuSans-105"/>
      <use x="185.144531" xlink:href="#DejaVuSans-100"/>
      <use x="248.621094" xlink:href="#DejaVuSans-97"/>
      <use x="309.900391" xlink:href="#DejaVuSans-116"/>
      <use x="349.109375" xlink:href="#DejaVuSans-105"/>
      <use x="376.892578" xlink:href="#DejaVuSans-111"/>
      <use x="438.074219" xlink:href="#DejaVuSans-110"/>
      <use x="501.453125" xlink:href="#DejaVuSans-32"/>
      <use x="533.240234" xlink:href="#DejaVuSans-108"/>
      <use x="561.023438" xlink:href="#DejaVuSans-111"/>
      <use x="622.205078" xlink:href="#DejaVuSans-115"/>
      <use x="674.304688" xlink:href="#DejaVuSans-115"/>
     </g>
    </g>
   </g>
  </g>
 </g>
 <defs>
  <clipPath id="p55ab0d049a">
   <rect height="104.68" width="230.38" x="54.02" y="25.44"/>
  </clipPath>
 </defs>
</svg>
