<?xml version="1.0" encoding="utf-8" standalone="no"?>
<!DOCTYPE svg PUBLIC "-//W3C//DTD SVG 1.1//EN"
  "http://www.w3.org/Graphics/SVG/1.1/DTD/svg11.dtd">
<!-- Created with matplotlib (https://matplotlib.org/) -->
<svg height="176.4pt" version="1.1" viewBox="0 0 313.2 176.4" width="313.2pt" xmlns="http://www.w3.org/2000/svg" xmlns:xlink="http://www.w3.org/1999/xlink">
 <defs>
  <style type="text/css">
*{stroke-linecap:butt;stroke-linejoin:round;}
  </style>
 </defs>
 <g id="figure_1">
  <g id="patch_1">
   <path d="M 0 176.4 
L 313.2 176.4 
L 313.2 0 
L 0 0 
z
" style="fill:#ffffff;"/>
  </g>
  <g id="axes_1">
   <g id="patch_2">
    <path d="M 59.19068 130.300448 
L 301.366247 130.300448 
L 301.366247 27.949776 
L 59.19068 27.949776 
z
" style="fill:#ffffff;"/>
   </g>
   <g id="matplotlib.axis_1">
    <g id="xtick_1">
     <g id="line2d_1">
      <defs>
       <path d="M 0 0 
L 0 3.5 
" id="m6c419d1794" style="stroke:#000000;stroke-width:0.8;"/>
      </defs>
      <g>
       <use style="stroke:#000000;stroke-width:0.8;" x="65.705607" xlink:href="#m6c419d1794" y="130.300448"/>
      </g>
     </g>
     <g id="text_1">
      <!-- 0 -->
      <defs>
       <path d="M 31.78125 66.40625 
Q 24.171875 66.40625 20.328125 58.90625 
Q 16.5 51.421875 16.5 36.375 
Q 16.5 21.390625 20.328125 13.890625 
Q 24.171875 6.390625 31.78125 6.390625 
Q 39.453125 6.390625 43.28125 13.890625 
Q 47.125 21.390625 47.125 36.375 
Q 47.125 51.421875 43.28125 58.90625 
Q 39.453125 66.40625 31.78125 66.40625 
z
M 31.78125 74.21875 
Q 44.046875 74.21875 50.515625 64.515625 
Q 56.984375 54.828125 56.984375 36.375 
Q 56.984375 17.96875 50.515625 8.265625 
Q 44.046875 -1.421875 31.78125 -1.421875 
Q 19.53125 -1.421875 13.0625 8.265625 
Q 6.59375 17.96875 6.59375 36.375 
Q 6.59375 54.828125 13.0625 64.515625 
Q 19.53125 74.21875 31.78125 74.21875 
z
" id="DejaVuSans-48"/>
      </defs>
      <g transform="translate(62.524357 144.898886)scale(0.1 -0.1)">
       <use xlink:href="#DejaVuSans-48"/>
      </g>
     </g>
    </g>
    <g id="xtick_2">
     <g id="line2d_2">
      <g>
       <use style="stroke:#000000;stroke-width:0.8;" x="110.636139" xlink:href="#m6c419d1794" y="130.300448"/>
      </g>
     </g>
     <g id="text_2">
      <!-- 10 -->
      <defs>
       <path d="M 12.40625 8.296875 
L 28.515625 8.296875 
L 28.515625 63.921875 
L 10.984375 60.40625 
L 10.984375 69.390625 
L 28.421875 72.90625 
L 38.28125 72.90625 
L 38.28125 8.296875 
L 54.390625 8.296875 
L 54.390625 0 
L 12.40625 0 
z
" id="DejaVuSans-49"/>
      </defs>
      <g transform="translate(104.273639 144.898886)scale(0.1 -0.1)">
       <use xlink:href="#DejaVuSans-49"/>
       <use x="63.623047" xlink:href="#DejaVuSans-48"/>
      </g>
     </g>
    </g>
    <g id="xtick_3">
     <g id="line2d_3">
      <g>
       <use style="stroke:#000000;stroke-width:0.8;" x="155.566671" xlink:href="#m6c419d1794" y="130.300448"/>
      </g>
     </g>
     <g id="text_3">
      <!-- 20 -->
      <defs>
       <path d="M 19.1875 8.296875 
L 53.609375 8.296875 
L 53.609375 0 
L 7.328125 0 
L 7.328125 8.296875 
Q 12.9375 14.109375 22.625 23.890625 
Q 32.328125 33.6875 34.8125 36.53125 
Q 39.546875 41.84375 41.421875 45.53125 
Q 43.3125 49.21875 43.3125 52.78125 
Q 43.3125 58.59375 39.234375 62.25 
Q 35.15625 65.921875 28.609375 65.921875 
Q 23.96875 65.921875 18.8125 64.3125 
Q 13.671875 62.703125 7.8125 59.421875 
L 7.8125 69.390625 
Q 13.765625 71.78125 18.9375 73 
Q 24.125 74.21875 28.421875 74.21875 
Q 39.75 74.21875 46.484375 68.546875 
Q 53.21875 62.890625 53.21875 53.421875 
Q 53.21875 48.921875 51.53125 44.890625 
Q 49.859375 40.875 45.40625 35.40625 
Q 44.1875 33.984375 37.640625 27.21875 
Q 31.109375 20.453125 19.1875 8.296875 
z
" id="DejaVuSans-50"/>
      </defs>
      <g transform="translate(149.204171 144.898886)scale(0.1 -0.1)">
       <use xlink:href="#DejaVuSans-50"/>
       <use x="63.623047" xlink:href="#DejaVuSans-48"/>
      </g>
     </g>
    </g>
    <g id="xtick_4">
     <g id="line2d_4">
      <g>
       <use style="stroke:#000000;stroke-width:0.8;" x="200.497203" xlink:href="#m6c419d1794" y="130.300448"/>
      </g>
     </g>
     <g id="text_4">
      <!-- 30 -->
      <defs>
       <path d="M 40.578125 39.3125 
Q 47.65625 37.796875 51.625 33 
Q 55.609375 28.21875 55.609375 21.1875 
Q 55.609375 10.40625 48.1875 4.484375 
Q 40.765625 -1.421875 27.09375 -1.421875 
Q 22.515625 -1.421875 17.65625 -0.515625 
Q 12.796875 0.390625 7.625 2.203125 
L 7.625 11.71875 
Q 11.71875 9.328125 16.59375 8.109375 
Q 21.484375 6.890625 26.8125 6.890625 
Q 36.078125 6.890625 40.9375 10.546875 
Q 45.796875 14.203125 45.796875 21.1875 
Q 45.796875 27.640625 41.28125 31.265625 
Q 36.765625 34.90625 28.71875 34.90625 
L 20.21875 34.90625 
L 20.21875 43.015625 
L 29.109375 43.015625 
Q 36.375 43.015625 40.234375 45.921875 
Q 44.09375 48.828125 44.09375 54.296875 
Q 44.09375 59.90625 40.109375 62.90625 
Q 36.140625 65.921875 28.71875 65.921875 
Q 24.65625 65.921875 20.015625 65.03125 
Q 15.375 64.15625 9.8125 62.3125 
L 9.8125 71.09375 
Q 15.4375 72.65625 20.34375 73.4375 
Q 25.25 74.21875 29.59375 74.21875 
Q 40.828125 74.21875 47.359375 69.109375 
Q 53.90625 64.015625 53.90625 55.328125 
Q 53.90625 49.265625 50.4375 45.09375 
Q 46.96875 40.921875 40.578125 39.3125 
z
" id="DejaVuSans-51"/>
      </defs>
      <g transform="translate(194.134703 144.898886)scale(0.1 -0.1)">
       <use xlink:href="#DejaVuSans-51"/>
       <use x="63.623047" xlink:href="#DejaVuSans-48"/>
      </g>
     </g>
    </g>
    <g id="xtick_5">
     <g id="line2d_5">
      <g>
       <use style="stroke:#000000;stroke-width:0.8;" x="245.427735" xlink:href="#m6c419d1794" y="130.300448"/>
      </g>
     </g>
     <g id="text_5">
      <!-- 40 -->
      <defs>
       <path d="M 37.796875 64.3125 
L 12.890625 25.390625 
L 37.796875 25.390625 
z
M 35.203125 72.90625 
L 47.609375 72.90625 
L 47.609375 25.390625 
L 58.015625 25.390625 
L 58.015625 17.1875 
L 47.609375 17.1875 
L 47.609375 0 
L 37.796875 0 
L 37.796875 17.1875 
L 4.890625 17.1875 
L 4.890625 26.703125 
z
" id="DejaVuSans-52"/>
      </defs>
      <g transform="translate(239.065235 144.898886)scale(0.1 -0.1)">
       <use xlink:href="#DejaVuSans-52"/>
       <use x="63.623047" xlink:href="#DejaVuSans-48"/>
      </g>
     </g>
    </g>
    <g id="xtick_6">
     <g id="line2d_6">
      <g>
       <use style="stroke:#000000;stroke-width:0.8;" x="290.358267" xlink:href="#m6c419d1794" y="130.300448"/>
      </g>
     </g>
     <g id="text_6">
      <!-- 50 -->
      <defs>
       <path d="M 10.796875 72.90625 
L 49.515625 72.90625 
L 49.515625 64.59375 
L 19.828125 64.59375 
L 19.828125 46.734375 
Q 21.96875 47.46875 24.109375 47.828125 
Q 26.265625 48.1875 28.421875 48.1875 
Q 40.625 48.1875 47.75 41.5 
Q 54.890625 34.8125 54.890625 23.390625 
Q 54.890625 11.625 47.5625 5.09375 
Q 40.234375 -1.421875 26.90625 -1.421875 
Q 22.3125 -1.421875 17.546875 -0.640625 
Q 12.796875 0.140625 7.71875 1.703125 
L 7.71875 11.625 
Q 12.109375 9.234375 16.796875 8.0625 
Q 21.484375 6.890625 26.703125 6.890625 
Q 35.15625 6.890625 40.078125 11.328125 
Q 45.015625 15.765625 45.015625 23.390625 
Q 45.015625 31 40.078125 35.4375 
Q 35.15625 39.890625 26.703125 39.890625 
Q 22.75 39.890625 18.8125 39.015625 
Q 14.890625 38.140625 10.796875 36.28125 
z
" id="DejaVuSans-53"/>
      </defs>
      <g transform="translate(283.995767 144.898886)scale(0.1 -0.1)">
       <use xlink:href="#DejaVuSans-53"/>
       <use x="63.623047" xlink:href="#DejaVuSans-48"/>
      </g>
     </g>
    </g>
    <g id="text_7">
     <!-- Epochs -->
     <defs>
      <path d="M 9.8125 72.90625 
L 55.90625 72.90625 
L 55.90625 64.59375 
L 19.671875 64.59375 
L 19.671875 43.015625 
L 54.390625 43.015625 
L 54.390625 34.71875 
L 19.671875 34.71875 
L 19.671875 8.296875 
L 56.78125 8.296875 
L 56.78125 0 
L 9.8125 0 
z
" id="DejaVuSans-69"/>
      <path d="M 18.109375 8.203125 
L 18.109375 -20.796875 
L 9.078125 -20.796875 
L 9.078125 54.6875 
L 18.109375 54.6875 
L 18.109375 46.390625 
Q 20.953125 51.265625 25.265625 53.625 
Q 29.59375 56 35.59375 56 
Q 45.5625 56 51.78125 48.09375 
Q 58.015625 40.1875 58.015625 27.296875 
Q 58.015625 14.40625 51.78125 6.484375 
Q 45.5625 -1.421875 35.59375 -1.421875 
Q 29.59375 -1.421875 25.265625 0.953125 
Q 20.953125 3.328125 18.109375 8.203125 
z
M 48.6875 27.296875 
Q 48.6875 37.203125 44.609375 42.84375 
Q 40.53125 48.484375 33.40625 48.484375 
Q 26.265625 48.484375 22.1875 42.84375 
Q 18.109375 37.203125 18.109375 27.296875 
Q 18.109375 17.390625 22.1875 11.75 
Q 26.265625 6.109375 33.40625 6.109375 
Q 40.53125 6.109375 44.609375 11.75 
Q 48.6875 17.390625 48.6875 27.296875 
z
" id="DejaVuSans-112"/>
      <path d="M 30.609375 48.390625 
Q 23.390625 48.390625 19.1875 42.75 
Q 14.984375 37.109375 14.984375 27.296875 
Q 14.984375 17.484375 19.15625 11.84375 
Q 23.34375 6.203125 30.609375 6.203125 
Q 37.796875 6.203125 41.984375 11.859375 
Q 46.1875 17.53125 46.1875 27.296875 
Q 46.1875 37.015625 41.984375 42.703125 
Q 37.796875 48.390625 30.609375 48.390625 
z
M 30.609375 56 
Q 42.328125 56 49.015625 48.375 
Q 55.71875 40.765625 55.71875 27.296875 
Q 55.71875 13.875 49.015625 6.21875 
Q 42.328125 -1.421875 30.609375 -1.421875 
Q 18.84375 -1.421875 12.171875 6.21875 
Q 5.515625 13.875 5.515625 27.296875 
Q 5.515625 40.765625 12.171875 48.375 
Q 18.84375 56 30.609375 56 
z
" id="DejaVuSans-111"/>
      <path d="M 48.78125 52.59375 
L 48.78125 44.1875 
Q 44.96875 46.296875 41.140625 47.34375 
Q 37.3125 48.390625 33.40625 48.390625 
Q 24.65625 48.390625 19.8125 42.84375 
Q 14.984375 37.3125 14.984375 27.296875 
Q 14.984375 17.28125 19.8125 11.734375 
Q 24.65625 6.203125 33.40625 6.203125 
Q 37.3125 6.203125 41.140625 7.25 
Q 44.96875 8.296875 48.78125 10.40625 
L 48.78125 2.09375 
Q 45.015625 0.34375 40.984375 -0.53125 
Q 36.96875 -1.421875 32.421875 -1.421875 
Q 20.0625 -1.421875 12.78125 6.34375 
Q 5.515625 14.109375 5.515625 27.296875 
Q 5.515625 40.671875 12.859375 48.328125 
Q 20.21875 56 33.015625 56 
Q 37.15625 56 41.109375 55.140625 
Q 45.0625 54.296875 48.78125 52.59375 
z
" id="DejaVuSans-99"/>
      <path d="M 54.890625 33.015625 
L 54.890625 0 
L 45.90625 0 
L 45.90625 32.71875 
Q 45.90625 40.484375 42.875 44.328125 
Q 39.84375 48.1875 33.796875 48.1875 
Q 26.515625 48.1875 22.3125 43.546875 
Q 18.109375 38.921875 18.109375 30.90625 
L 18.109375 0 
L 9.078125 0 
L 9.078125 75.984375 
L 18.109375 75.984375 
L 18.109375 46.1875 
Q 21.34375 51.125 25.703125 53.5625 
Q 30.078125 56 35.796875 56 
Q 45.21875 56 50.046875 50.171875 
Q 54.890625 44.34375 54.890625 33.015625 
z
" id="DejaVuSans-104"/>
      <path d="M 44.28125 53.078125 
L 44.28125 44.578125 
Q 40.484375 46.53125 36.375 47.5 
Q 32.28125 48.484375 27.875 48.484375 
Q 21.1875 48.484375 17.84375 46.4375 
Q 14.5 44.390625 14.5 40.28125 
Q 14.5 37.15625 16.890625 35.375 
Q 19.28125 33.59375 26.515625 31.984375 
L 29.59375 31.296875 
Q 39.15625 29.25 43.1875 25.515625 
Q 47.21875 21.78125 47.21875 15.09375 
Q 47.21875 7.46875 41.1875 3.015625 
Q 35.15625 -1.421875 24.609375 -1.421875 
Q 20.21875 -1.421875 15.453125 -0.5625 
Q 10.6875 0.296875 5.421875 2 
L 5.421875 11.28125 
Q 10.40625 8.6875 15.234375 7.390625 
Q 20.0625 6.109375 24.8125 6.109375 
Q 31.15625 6.109375 34.5625 8.28125 
Q 37.984375 10.453125 37.984375 14.40625 
Q 37.984375 18.0625 35.515625 20.015625 
Q 33.0625 21.96875 24.703125 23.78125 
L 21.578125 24.515625 
Q 13.234375 26.265625 9.515625 29.90625 
Q 5.8125 33.546875 5.8125 39.890625 
Q 5.8125 47.609375 11.28125 51.796875 
Q 16.75 56 26.8125 56 
Q 31.78125 56 36.171875 55.265625 
Q 40.578125 54.546875 44.28125 53.078125 
z
" id="DejaVuSans-115"/>
     </defs>
     <g transform="translate(162.362838 158.577011)scale(0.1 -0.1)">
      <use xlink:href="#DejaVuSans-69"/>
      <use x="63.183594" xlink:href="#DejaVuSans-112"/>
      <use x="126.660156" xlink:href="#DejaVuSans-111"/>
      <use x="187.841797" xlink:href="#DejaVuSans-99"/>
      <use x="242.822266" xlink:href="#DejaVuSans-104"/>
      <use x="306.201172" xlink:href="#DejaVuSans-115"/>
     </g>
    </g>
   </g>
   <g id="matplotlib.axis_2">
    <g id="ytick_1">
     <g id="line2d_7">
      <defs>
       <path d="M 0 0 
L -3.5 0 
" id="mc9a2e1e5df" style="stroke:#000000;stroke-width:0.8;"/>
      </defs>
      <g>
       <use style="stroke:#000000;stroke-width:0.8;" x="59.19068" xlink:href="#mc9a2e1e5df" y="125.942894"/>
      </g>
     </g>
     <g id="text_8">
      <!-- 0.00 -->
      <defs>
       <path d="M 10.6875 12.40625 
L 21 12.40625 
L 21 0 
L 10.6875 0 
z
" id="DejaVuSans-46"/>
      </defs>
      <g transform="translate(29.925055 129.742113)scale(0.1 -0.1)">
       <use xlink:href="#DejaVuSans-48"/>
       <use x="63.623047" xlink:href="#DejaVuSans-46"/>
       <use x="95.410156" xlink:href="#DejaVuSans-48"/>
       <use x="159.033203" xlink:href="#DejaVuSans-48"/>
      </g>
     </g>
    </g>
    <g id="ytick_2">
     <g id="line2d_8">
      <g>
       <use style="stroke:#000000;stroke-width:0.8;" x="59.19068" xlink:href="#mc9a2e1e5df" y="96.783481"/>
      </g>
     </g>
     <g id="text_9">
      <!-- 0.01 -->
      <g transform="translate(29.925055 100.582699)scale(0.1 -0.1)">
       <use xlink:href="#DejaVuSans-48"/>
       <use x="63.623047" xlink:href="#DejaVuSans-46"/>
       <use x="95.410156" xlink:href="#DejaVuSans-48"/>
       <use x="159.033203" xlink:href="#DejaVuSans-49"/>
      </g>
     </g>
    </g>
    <g id="ytick_3">
     <g id="line2d_9">
      <g>
       <use style="stroke:#000000;stroke-width:0.8;" x="59.19068" xlink:href="#mc9a2e1e5df" y="67.624067"/>
      </g>
     </g>
     <g id="text_10">
      <!-- 0.02 -->
      <g transform="translate(29.925055 71.423286)scale(0.1 -0.1)">
       <use xlink:href="#DejaVuSans-48"/>
       <use x="63.623047" xlink:href="#DejaVuSans-46"/>
       <use x="95.410156" xlink:href="#DejaVuSans-48"/>
       <use x="159.033203" xlink:href="#DejaVuSans-50"/>
      </g>
     </g>
    </g>
    <g id="ytick_4">
     <g id="line2d_10">
      <g>
       <use style="stroke:#000000;stroke-width:0.8;" x="59.19068" xlink:href="#mc9a2e1e5df" y="38.464653"/>
      </g>
     </g>
     <g id="text_11">
      <!-- 0.03 -->
      <g transform="translate(29.925055 42.263872)scale(0.1 -0.1)">
       <use xlink:href="#DejaVuSans-48"/>
       <use x="63.623047" xlink:href="#DejaVuSans-46"/>
       <use x="95.410156" xlink:href="#DejaVuSans-48"/>
       <use x="159.033203" xlink:href="#DejaVuSans-51"/>
      </g>
     </g>
    </g>
    <g id="text_12">
     <!-- Loss -->
     <defs>
      <path d="M 9.8125 72.90625 
L 19.671875 72.90625 
L 19.671875 8.296875 
L 55.171875 8.296875 
L 55.171875 0 
L 9.8125 0 
z
" id="DejaVuSans-76"/>
     </defs>
     <g transform="translate(23.845368 90.179018)rotate(-90)scale(0.1 -0.1)">
      <use xlink:href="#DejaVuSans-76"/>
      <use x="55.697266" xlink:href="#DejaVuSans-111"/>
      <use x="116.878906" xlink:href="#DejaVuSans-115"/>
      <use x="168.978516" xlink:href="#DejaVuSans-115"/>
     </g>
    </g>
   </g>
   <g id="line2d_11">
    <path clip-path="url(#p98e123372e)" d="M 70.19866 35.607253 
L 74.691714 33.767215 
L 79.184767 67.008222 
L 83.67782 84.131958 
L 88.170873 92.642626 
L 92.663926 101.974896 
L 97.15698 85.848293 
L 101.650033 100.178554 
L 106.143086 92.459263 
L 110.636139 85.367314 
L 115.129192 98.264785 
L 119.622245 97.350233 
L 124.115299 105.509351 
L 128.608352 110.753516 
L 133.101405 109.942961 
L 137.594458 111.049442 
L 142.087511 108.818406 
L 146.580565 114.164169 
L 151.073618 120.218281 
L 155.566671 119.17126 
L 160.059724 117.85001 
L 164.552777 83.870139 
L 169.045831 122.028713 
L 173.538884 122.688766 
L 178.031937 114.932418 
L 182.52499 121.969871 
L 187.018043 118.316905 
L 191.511096 124.032393 
L 196.00415 122.342106 
L 200.497203 122.626789 
L 204.990256 121.31631 
L 209.483309 124.267708 
L 213.976362 125.044783 
L 218.469416 124.735356 
L 222.962469 124.13425 
L 227.455522 124.67097 
L 231.948575 124.969126 
L 236.441628 125.302277 
L 240.934681 124.225114 
L 245.427735 125.242714 
L 249.920788 121.495553 
L 254.413841 125.426941 
L 258.906894 125.468959 
L 263.399947 125.563876 
L 267.893001 125.52332 
L 272.386054 125.595624 
L 276.879107 125.524555 
L 281.37216 124.749 
L 285.865213 125.648145 
L 290.358267 125.344337 
" style="fill:none;stroke:#008000;stroke-linecap:square;stroke-width:1.5;"/>
    <defs>
     <path d="M 0 1.5 
C 0.397805 1.5 0.77937 1.341951 1.06066 1.06066 
C 1.341951 0.77937 1.5 0.397805 1.5 0 
C 1.5 -0.397805 1.341951 -0.77937 1.06066 -1.06066 
C 0.77937 -1.341951 0.397805 -1.5 0 -1.5 
C -0.397805 -1.5 -0.77937 -1.341951 -1.06066 -1.06066 
C -1.341951 -0.77937 -1.5 -0.397805 -1.5 0 
C -1.5 0.397805 -1.341951 0.77937 -1.06066 1.06066 
C -0.77937 1.341951 -0.397805 1.5 0 1.5 
z
" id="mab20d96a6a" style="stroke:#008000;"/>
    </defs>
    <g clip-path="url(#p98e123372e)">
     <use style="fill:#008000;stroke:#008000;" x="70.19866" xlink:href="#mab20d96a6a" y="35.607253"/>
     <use style="fill:#008000;stroke:#008000;" x="74.691714" xlink:href="#mab20d96a6a" y="33.767215"/>
     <use style="fill:#008000;stroke:#008000;" x="79.184767" xlink:href="#mab20d96a6a" y="67.008222"/>
     <use style="fill:#008000;stroke:#008000;" x="83.67782" xlink:href="#mab20d96a6a" y="84.131958"/>
     <use style="fill:#008000;stroke:#008000;" x="88.170873" xlink:href="#mab20d96a6a" y="92.642626"/>
     <use style="fill:#008000;stroke:#008000;" x="92.663926" xlink:href="#mab20d96a6a" y="101.974896"/>
     <use style="fill:#008000;stroke:#008000;" x="97.15698" xlink:href="#mab20d96a6a" y="85.848293"/>
     <use style="fill:#008000;stroke:#008000;" x="101.650033" xlink:href="#mab20d96a6a" y="100.178554"/>
     <use style="fill:#008000;stroke:#008000;" x="106.143086" xlink:href="#mab20d96a6a" y="92.459263"/>
     <use style="fill:#008000;stroke:#008000;" x="110.636139" xlink:href="#mab20d96a6a" y="85.367314"/>
     <use style="fill:#008000;stroke:#008000;" x="115.129192" xlink:href="#mab20d96a6a" y="98.264785"/>
     <use style="fill:#008000;stroke:#008000;" x="119.622245" xlink:href="#mab20d96a6a" y="97.350233"/>
     <use style="fill:#008000;stroke:#008000;" x="124.115299" xlink:href="#mab20d96a6a" y="105.509351"/>
     <use style="fill:#008000;stroke:#008000;" x="128.608352" xlink:href="#mab20d96a6a" y="110.753516"/>
     <use style="fill:#008000;stroke:#008000;" x="133.101405" xlink:href="#mab20d96a6a" y="109.942961"/>
     <use style="fill:#008000;stroke:#008000;" x="137.594458" xlink:href="#mab20d96a6a" y="111.049442"/>
     <use style="fill:#008000;stroke:#008000;" x="142.087511" xlink:href="#mab20d96a6a" y="108.818406"/>
     <use style="fill:#008000;stroke:#008000;" x="146.580565" xlink:href="#mab20d96a6a" y="114.164169"/>
     <use style="fill:#008000;stroke:#008000;" x="151.073618" xlink:href="#mab20d96a6a" y="120.218281"/>
     <use style="fill:#008000;stroke:#008000;" x="155.566671" xlink:href="#mab20d96a6a" y="119.17126"/>
     <use style="fill:#008000;stroke:#008000;" x="160.059724" xlink:href="#mab20d96a6a" y="117.85001"/>
     <use style="fill:#008000;stroke:#008000;" x="164.552777" xlink:href="#mab20d96a6a" y="83.870139"/>
     <use style="fill:#008000;stroke:#008000;" x="169.045831" xlink:href="#mab20d96a6a" y="122.028713"/>
     <use style="fill:#008000;stroke:#008000;" x="173.538884" xlink:href="#mab20d96a6a" y="122.688766"/>
     <use style="fill:#008000;stroke:#008000;" x="178.031937" xlink:href="#mab20d96a6a" y="114.932418"/>
     <use style="fill:#008000;stroke:#008000;" x="182.52499" xlink:href="#mab20d96a6a" y="121.969871"/>
     <use style="fill:#008000;stroke:#008000;" x="187.018043" xlink:href="#mab20d96a6a" y="118.316905"/>
     <use style="fill:#008000;stroke:#008000;" x="191.511096" xlink:href="#mab20d96a6a" y="124.032393"/>
     <use style="fill:#008000;stroke:#008000;" x="196.00415" xlink:href="#mab20d96a6a" y="122.342106"/>
     <use style="fill:#008000;stroke:#008000;" x="200.497203" xlink:href="#mab20d96a6a" y="122.626789"/>
     <use style="fill:#008000;stroke:#008000;" x="204.990256" xlink:href="#mab20d96a6a" y="121.31631"/>
     <use style="fill:#008000;stroke:#008000;" x="209.483309" xlink:href="#mab20d96a6a" y="124.267708"/>
     <use style="fill:#008000;stroke:#008000;" x="213.976362" xlink:href="#mab20d96a6a" y="125.044783"/>
     <use style="fill:#008000;stroke:#008000;" x="218.469416" xlink:href="#mab20d96a6a" y="124.735356"/>
     <use style="fill:#008000;stroke:#008000;" x="222.962469" xlink:href="#mab20d96a6a" y="124.13425"/>
     <use style="fill:#008000;stroke:#008000;" x="227.455522" xlink:href="#mab20d96a6a" y="124.67097"/>
     <use style="fill:#008000;stroke:#008000;" x="231.948575" xlink:href="#mab20d96a6a" y="124.969126"/>
     <use style="fill:#008000;stroke:#008000;" x="236.441628" xlink:href="#mab20d96a6a" y="125.302277"/>
     <use style="fill:#008000;stroke:#008000;" x="240.934681" xlink:href="#mab20d96a6a" y="124.225114"/>
     <use style="fill:#008000;stroke:#008000;" x="245.427735" xlink:href="#mab20d96a6a" y="125.242714"/>
     <use style="fill:#008000;stroke:#008000;" x="249.920788" xlink:href="#mab20d96a6a" y="121.495553"/>
     <use style="fill:#008000;stroke:#008000;" x="254.413841" xlink:href="#mab20d96a6a" y="125.426941"/>
     <use style="fill:#008000;stroke:#008000;" x="258.906894" xlink:href="#mab20d96a6a" y="125.468959"/>
     <use style="fill:#008000;stroke:#008000;" x="263.399947" xlink:href="#mab20d96a6a" y="125.563876"/>
     <use style="fill:#008000;stroke:#008000;" x="267.893001" xlink:href="#mab20d96a6a" y="125.52332"/>
     <use style="fill:#008000;stroke:#008000;" x="272.386054" xlink:href="#mab20d96a6a" y="125.595624"/>
     <use style="fill:#008000;stroke:#008000;" x="276.879107" xlink:href="#mab20d96a6a" y="125.524555"/>
     <use style="fill:#008000;stroke:#008000;" x="281.37216" xlink:href="#mab20d96a6a" y="124.749"/>
     <use style="fill:#008000;stroke:#008000;" x="285.865213" xlink:href="#mab20d96a6a" y="125.648145"/>
     <use style="fill:#008000;stroke:#008000;" x="290.358267" xlink:href="#mab20d96a6a" y="125.344337"/>
    </g>
   </g>
   <g id="line2d_12">
    <path clip-path="url(#p98e123372e)" d="M 70.19866 32.602079 
L 74.691714 58.3696 
L 79.184767 68.047584 
L 83.67782 74.35116 
L 88.170873 78.802011 
L 92.663926 80.853937 
L 97.15698 82.267974 
L 101.650033 84.063683 
L 106.143086 84.629256 
L 110.636139 87.224984 
L 115.129192 87.045336 
L 119.622245 89.232359 
L 124.115299 89.005537 
L 128.608352 90.228398 
L 133.101405 91.245353 
L 137.594458 91.512687 
L 142.087511 92.230934 
L 146.580565 92.181788 
L 151.073618 92.583755 
L 155.566671 92.941658 
L 160.059724 93.063201 
L 164.552777 93.72737 
L 169.045831 93.382383 
L 173.538884 94.260998 
L 178.031937 95.009744 
L 182.52499 94.342686 
L 187.018043 94.32807 
L 191.511096 94.920551 
L 196.00415 95.269456 
L 200.497203 95.082422 
L 204.990256 94.79888 
L 209.483309 95.319957 
L 213.976362 95.13859 
L 218.469416 95.208684 
L 222.962469 95.375061 
L 227.455522 95.255595 
L 231.948575 95.587745 
L 236.441628 95.856166 
L 240.934681 95.374604 
L 245.427735 95.375091 
L 249.920788 95.419652 
L 254.413841 96.375722 
L 258.906894 95.838799 
L 263.399947 95.850069 
L 267.893001 95.927536 
L 272.386054 96.177328 
L 276.879107 96.135215 
L 281.37216 95.606421 
L 285.865213 96.113886 
L 290.358267 95.765168 
" style="fill:none;stroke:#0000ff;stroke-linecap:square;stroke-width:1.5;"/>
    <defs>
     <path d="M 0 1.5 
C 0.397805 1.5 0.77937 1.341951 1.06066 1.06066 
C 1.341951 0.77937 1.5 0.397805 1.5 0 
C 1.5 -0.397805 1.341951 -0.77937 1.06066 -1.06066 
C 0.77937 -1.341951 0.397805 -1.5 0 -1.5 
C -0.397805 -1.5 -0.77937 -1.341951 -1.06066 -1.06066 
C -1.341951 -0.77937 -1.5 -0.397805 -1.5 0 
C -1.5 0.397805 -1.341951 0.77937 -1.06066 1.06066 
C -0.77937 1.341951 -0.397805 1.5 0 1.5 
z
" id="mb13549246a" style="stroke:#0000ff;"/>
    </defs>
    <g clip-path="url(#p98e123372e)">
     <use style="fill:#0000ff;stroke:#0000ff;" x="70.19866" xlink:href="#mb13549246a" y="32.602079"/>
     <use style="fill:#0000ff;stroke:#0000ff;" x="74.691714" xlink:href="#mb13549246a" y="58.3696"/>
     <use style="fill:#0000ff;stroke:#0000ff;" x="79.184767" xlink:href="#mb13549246a" y="68.047584"/>
     <use style="fill:#0000ff;stroke:#0000ff;" x="83.67782" xlink:href="#mb13549246a" y="74.35116"/>
     <use style="fill:#0000ff;stroke:#0000ff;" x="88.170873" xlink:href="#mb13549246a" y="78.802011"/>
     <use style="fill:#0000ff;stroke:#0000ff;" x="92.663926" xlink:href="#mb13549246a" y="80.853937"/>
     <use style="fill:#0000ff;stroke:#0000ff;" x="97.15698" xlink:href="#mb13549246a" y="82.267974"/>
     <use style="fill:#0000ff;stroke:#0000ff;" x="101.650033" xlink:href="#mb13549246a" y="84.063683"/>
     <use style="fill:#0000ff;stroke:#0000ff;" x="106.143086" xlink:href="#mb13549246a" y="84.629256"/>
     <use style="fill:#0000ff;stroke:#0000ff;" x="110.636139" xlink:href="#mb13549246a" y="87.224984"/>
     <use style="fill:#0000ff;stroke:#0000ff;" x="115.129192" xlink:href="#mb13549246a" y="87.045336"/>
     <use style="fill:#0000ff;stroke:#0000ff;" x="119.622245" xlink:href="#mb13549246a" y="89.232359"/>
     <use style="fill:#0000ff;stroke:#0000ff;" x="124.115299" xlink:href="#mb13549246a" y="89.005537"/>
     <use style="fill:#0000ff;stroke:#0000ff;" x="128.608352" xlink:href="#mb13549246a" y="90.228398"/>
     <use style="fill:#0000ff;stroke:#0000ff;" x="133.101405" xlink:href="#mb13549246a" y="91.245353"/>
     <use style="fill:#0000ff;stroke:#0000ff;" x="137.594458" xlink:href="#mb13549246a" y="91.512687"/>
     <use style="fill:#0000ff;stroke:#0000ff;" x="142.087511" xlink:href="#mb13549246a" y="92.230934"/>
     <use style="fill:#0000ff;stroke:#0000ff;" x="146.580565" xlink:href="#mb13549246a" y="92.181788"/>
     <use style="fill:#0000ff;stroke:#0000ff;" x="151.073618" xlink:href="#mb13549246a" y="92.583755"/>
     <use style="fill:#0000ff;stroke:#0000ff;" x="155.566671" xlink:href="#mb13549246a" y="92.941658"/>
     <use style="fill:#0000ff;stroke:#0000ff;" x="160.059724" xlink:href="#mb13549246a" y="93.063201"/>
     <use style="fill:#0000ff;stroke:#0000ff;" x="164.552777" xlink:href="#mb13549246a" y="93.72737"/>
     <use style="fill:#0000ff;stroke:#0000ff;" x="169.045831" xlink:href="#mb13549246a" y="93.382383"/>
     <use style="fill:#0000ff;stroke:#0000ff;" x="173.538884" xlink:href="#mb13549246a" y="94.260998"/>
     <use style="fill:#0000ff;stroke:#0000ff;" x="178.031937" xlink:href="#mb13549246a" y="95.009744"/>
     <use style="fill:#0000ff;stroke:#0000ff;" x="182.52499" xlink:href="#mb13549246a" y="94.342686"/>
     <use style="fill:#0000ff;stroke:#0000ff;" x="187.018043" xlink:href="#mb13549246a" y="94.32807"/>
     <use style="fill:#0000ff;stroke:#0000ff;" x="191.511096" xlink:href="#mb13549246a" y="94.920551"/>
     <use style="fill:#0000ff;stroke:#0000ff;" x="196.00415" xlink:href="#mb13549246a" y="95.269456"/>
     <use style="fill:#0000ff;stroke:#0000ff;" x="200.497203" xlink:href="#mb13549246a" y="95.082422"/>
     <use style="fill:#0000ff;stroke:#0000ff;" x="204.990256" xlink:href="#mb13549246a" y="94.79888"/>
     <use style="fill:#0000ff;stroke:#0000ff;" x="209.483309" xlink:href="#mb13549246a" y="95.319957"/>
     <use style="fill:#0000ff;stroke:#0000ff;" x="213.976362" xlink:href="#mb13549246a" y="95.13859"/>
     <use style="fill:#0000ff;stroke:#0000ff;" x="218.469416" xlink:href="#mb13549246a" y="95.208684"/>
     <use style="fill:#0000ff;stroke:#0000ff;" x="222.962469" xlink:href="#mb13549246a" y="95.375061"/>
     <use style="fill:#0000ff;stroke:#0000ff;" x="227.455522" xlink:href="#mb13549246a" y="95.255595"/>
     <use style="fill:#0000ff;stroke:#0000ff;" x="231.948575" xlink:href="#mb13549246a" y="95.587745"/>
     <use style="fill:#0000ff;stroke:#0000ff;" x="236.441628" xlink:href="#mb13549246a" y="95.856166"/>
     <use style="fill:#0000ff;stroke:#0000ff;" x="240.934681" xlink:href="#mb13549246a" y="95.374604"/>
     <use style="fill:#0000ff;stroke:#0000ff;" x="245.427735" xlink:href="#mb13549246a" y="95.375091"/>
     <use style="fill:#0000ff;stroke:#0000ff;" x="249.920788" xlink:href="#mb13549246a" y="95.419652"/>
     <use style="fill:#0000ff;stroke:#0000ff;" x="254.413841" xlink:href="#mb13549246a" y="96.375722"/>
     <use style="fill:#0000ff;stroke:#0000ff;" x="258.906894" xlink:href="#mb13549246a" y="95.838799"/>
     <use style="fill:#0000ff;stroke:#0000ff;" x="263.399947" xlink:href="#mb13549246a" y="95.850069"/>
     <use style="fill:#0000ff;stroke:#0000ff;" x="267.893001" xlink:href="#mb13549246a" y="95.927536"/>
     <use style="fill:#0000ff;stroke:#0000ff;" x="272.386054" xlink:href="#mb13549246a" y="96.177328"/>
     <use style="fill:#0000ff;stroke:#0000ff;" x="276.879107" xlink:href="#mb13549246a" y="96.135215"/>
     <use style="fill:#0000ff;stroke:#0000ff;" x="281.37216" xlink:href="#mb13549246a" y="95.606421"/>
     <use style="fill:#0000ff;stroke:#0000ff;" x="285.865213" xlink:href="#mb13549246a" y="96.113886"/>
     <use style="fill:#0000ff;stroke:#0000ff;" x="290.358267" xlink:href="#mb13549246a" y="95.765168"/>
    </g>
   </g>
   <g id="patch_3">
    <path d="M 59.19068 130.300448 
L 59.19068 27.949776 
" style="fill:none;stroke:#000000;stroke-linecap:square;stroke-linejoin:miter;stroke-width:0.8;"/>
   </g>
   <g id="patch_4">
    <path d="M 301.366247 130.300448 
L 301.366247 27.949776 
" style="fill:none;stroke:#000000;stroke-linecap:square;stroke-linejoin:miter;stroke-width:0.8;"/>
   </g>
   <g id="patch_5">
    <path d="M 59.19068 130.300448 
L 301.366247 130.300448 
" style="fill:none;stroke:#000000;stroke-linecap:square;stroke-linejoin:miter;stroke-width:0.8;"/>
   </g>
   <g id="patch_6">
    <path d="M 59.19068 27.949776 
L 301.366247 27.949776 
" style="fill:none;stroke:#000000;stroke-linecap:square;stroke-linejoin:miter;stroke-width:0.8;"/>
   </g>
   <g id="text_13">
    <!-- VNET2 -->
    <defs>
     <path d="M 28.609375 0 
L 0.78125 72.90625 
L 11.078125 72.90625 
L 34.1875 11.53125 
L 57.328125 72.90625 
L 67.578125 72.90625 
L 39.796875 0 
z
" id="DejaVuSans-86"/>
     <path d="M 9.8125 72.90625 
L 23.09375 72.90625 
L 55.421875 11.921875 
L 55.421875 72.90625 
L 64.984375 72.90625 
L 64.984375 0 
L 51.703125 0 
L 19.390625 60.984375 
L 19.390625 0 
L 9.8125 0 
z
" id="DejaVuSans-78"/>
     <path d="M -0.296875 72.90625 
L 61.375 72.90625 
L 61.375 64.59375 
L 35.5 64.59375 
L 35.5 0 
L 25.59375 0 
L 25.59375 64.59375 
L -0.296875 64.59375 
z
" id="DejaVuSans-84"/>
    </defs>
    <g transform="translate(160.411901 21.949776)scale(0.12 -0.12)">
     <use xlink:href="#DejaVuSans-86"/>
     <use x="68.408203" xlink:href="#DejaVuSans-78"/>
     <use x="143.212891" xlink:href="#DejaVuSans-69"/>
     <use x="206.396484" xlink:href="#DejaVuSans-84"/>
     <use x="267.480469" xlink:href="#DejaVuSans-50"/>
    </g>
   </g>
   <g id="legend_1">
    <g id="patch_7">
     <path d="M 189.727184 65.306026 
L 294.366247 65.306026 
Q 296.366247 65.306026 296.366247 63.306026 
L 296.366247 34.949776 
Q 296.366247 32.949776 294.366247 32.949776 
L 189.727184 32.949776 
Q 187.727184 32.949776 187.727184 34.949776 
L 187.727184 63.306026 
Q 187.727184 65.306026 189.727184 65.306026 
z
" style="fill:#ffffff;opacity:0.8;stroke:#cccccc;stroke-linejoin:miter;"/>
    </g>
    <g id="line2d_13">
     <path d="M 191.727184 41.048213 
L 211.727184 41.048213 
" style="fill:none;stroke:#008000;stroke-linecap:square;stroke-width:1.5;"/>
    </g>
    <g id="line2d_14">
     <g>
      <use style="fill:#008000;stroke:#008000;" x="201.727184" xlink:href="#mab20d96a6a" y="41.048213"/>
     </g>
    </g>
    <g id="text_14">
     <!-- Training loss -->
     <defs>
      <path d="M 41.109375 46.296875 
Q 39.59375 47.171875 37.8125 47.578125 
Q 36.03125 48 33.890625 48 
Q 26.265625 48 22.1875 43.046875 
Q 18.109375 38.09375 18.109375 28.8125 
L 18.109375 0 
L 9.078125 0 
L 9.078125 54.6875 
L 18.109375 54.6875 
L 18.109375 46.1875 
Q 20.953125 51.171875 25.484375 53.578125 
Q 30.03125 56 36.53125 56 
Q 37.453125 56 38.578125 55.875 
Q 39.703125 55.765625 41.0625 55.515625 
z
" id="DejaVuSans-114"/>
      <path d="M 34.28125 27.484375 
Q 23.390625 27.484375 19.1875 25 
Q 14.984375 22.515625 14.984375 16.5 
Q 14.984375 11.71875 18.140625 8.90625 
Q 21.296875 6.109375 26.703125 6.109375 
Q 34.1875 6.109375 38.703125 11.40625 
Q 43.21875 16.703125 43.21875 25.484375 
L 43.21875 27.484375 
z
M 52.203125 31.203125 
L 52.203125 0 
L 43.21875 0 
L 43.21875 8.296875 
Q 40.140625 3.328125 35.546875 0.953125 
Q 30.953125 -1.421875 24.3125 -1.421875 
Q 15.921875 -1.421875 10.953125 3.296875 
Q 6 8.015625 6 15.921875 
Q 6 25.140625 12.171875 29.828125 
Q 18.359375 34.515625 30.609375 34.515625 
L 43.21875 34.515625 
L 43.21875 35.40625 
Q 43.21875 41.609375 39.140625 45 
Q 35.0625 48.390625 27.6875 48.390625 
Q 23 48.390625 18.546875 47.265625 
Q 14.109375 46.140625 10.015625 43.890625 
L 10.015625 52.203125 
Q 14.9375 54.109375 19.578125 55.046875 
Q 24.21875 56 28.609375 56 
Q 40.484375 56 46.34375 49.84375 
Q 52.203125 43.703125 52.203125 31.203125 
z
" id="DejaVuSans-97"/>
      <path d="M 9.421875 54.6875 
L 18.40625 54.6875 
L 18.40625 0 
L 9.421875 0 
z
M 9.421875 75.984375 
L 18.40625 75.984375 
L 18.40625 64.59375 
L 9.421875 64.59375 
z
" id="DejaVuSans-105"/>
      <path d="M 54.890625 33.015625 
L 54.890625 0 
L 45.90625 0 
L 45.90625 32.71875 
Q 45.90625 40.484375 42.875 44.328125 
Q 39.84375 48.1875 33.796875 48.1875 
Q 26.515625 48.1875 22.3125 43.546875 
Q 18.109375 38.921875 18.109375 30.90625 
L 18.109375 0 
L 9.078125 0 
L 9.078125 54.6875 
L 18.109375 54.6875 
L 18.109375 46.1875 
Q 21.34375 51.125 25.703125 53.5625 
Q 30.078125 56 35.796875 56 
Q 45.21875 56 50.046875 50.171875 
Q 54.890625 44.34375 54.890625 33.015625 
z
" id="DejaVuSans-110"/>
      <path d="M 45.40625 27.984375 
Q 45.40625 37.75 41.375 43.109375 
Q 37.359375 48.484375 30.078125 48.484375 
Q 22.859375 48.484375 18.828125 43.109375 
Q 14.796875 37.75 14.796875 27.984375 
Q 14.796875 18.265625 18.828125 12.890625 
Q 22.859375 7.515625 30.078125 7.515625 
Q 37.359375 7.515625 41.375 12.890625 
Q 45.40625 18.265625 45.40625 27.984375 
z
M 54.390625 6.78125 
Q 54.390625 -7.171875 48.1875 -13.984375 
Q 42 -20.796875 29.203125 -20.796875 
Q 24.46875 -20.796875 20.265625 -20.09375 
Q 16.0625 -19.390625 12.109375 -17.921875 
L 12.109375 -9.1875 
Q 16.0625 -11.328125 19.921875 -12.34375 
Q 23.78125 -13.375 27.78125 -13.375 
Q 36.625 -13.375 41.015625 -8.765625 
Q 45.40625 -4.15625 45.40625 5.171875 
L 45.40625 9.625 
Q 42.625 4.78125 38.28125 2.390625 
Q 33.9375 0 27.875 0 
Q 17.828125 0 11.671875 7.65625 
Q 5.515625 15.328125 5.515625 27.984375 
Q 5.515625 40.671875 11.671875 48.328125 
Q 17.828125 56 27.875 56 
Q 33.9375 56 38.28125 53.609375 
Q 42.625 51.21875 45.40625 46.390625 
L 45.40625 54.6875 
L 54.390625 54.6875 
z
" id="DejaVuSans-103"/>
      <path id="DejaVuSans-32"/>
      <path d="M 9.421875 75.984375 
L 18.40625 75.984375 
L 18.40625 0 
L 9.421875 0 
z
" id="DejaVuSans-108"/>
     </defs>
     <g transform="translate(219.727184 44.548213)scale(0.1 -0.1)">
      <use xlink:href="#DejaVuSans-84"/>
      <use x="60.865234" xlink:href="#DejaVuSans-114"/>
      <use x="101.978516" xlink:href="#DejaVuSans-97"/>
      <use x="163.257812" xlink:href="#DejaVuSans-105"/>
      <use x="191.041016" xlink:href="#DejaVuSans-110"/>
      <use x="254.419922" xlink:href="#DejaVuSans-105"/>
      <use x="282.203125" xlink:href="#DejaVuSans-110"/>
      <use x="345.582031" xlink:href="#DejaVuSans-103"/>
      <use x="409.058594" xlink:href="#DejaVuSans-32"/>
      <use x="440.845703" xlink:href="#DejaVuSans-108"/>
      <use x="468.628906" xlink:href="#DejaVuSans-111"/>
      <use x="529.810547" xlink:href="#DejaVuSans-115"/>
      <use x="581.910156" xlink:href="#DejaVuSans-115"/>
     </g>
    </g>
    <g id="line2d_15">
     <path d="M 191.727184 55.726338 
L 211.727184 55.726338 
" style="fill:none;stroke:#0000ff;stroke-linecap:square;stroke-width:1.5;"/>
    </g>
    <g id="line2d_16">
     <g>
      <use style="fill:#0000ff;stroke:#0000ff;" x="201.727184" xlink:href="#mb13549246a" y="55.726338"/>
     </g>
    </g>
    <g id="text_15">
     <!-- Validation loss -->
     <defs>
      <path d="M 45.40625 46.390625 
L 45.40625 75.984375 
L 54.390625 75.984375 
L 54.390625 0 
L 45.40625 0 
L 45.40625 8.203125 
Q 42.578125 3.328125 38.25 0.953125 
Q 33.9375 -1.421875 27.875 -1.421875 
Q 17.96875 -1.421875 11.734375 6.484375 
Q 5.515625 14.40625 5.515625 27.296875 
Q 5.515625 40.1875 11.734375 48.09375 
Q 17.96875 56 27.875 56 
Q 33.9375 56 38.25 53.625 
Q 42.578125 51.265625 45.40625 46.390625 
z
M 14.796875 27.296875 
Q 14.796875 17.390625 18.875 11.75 
Q 22.953125 6.109375 30.078125 6.109375 
Q 37.203125 6.109375 41.296875 11.75 
Q 45.40625 17.390625 45.40625 27.296875 
Q 45.40625 37.203125 41.296875 42.84375 
Q 37.203125 48.484375 30.078125 48.484375 
Q 22.953125 48.484375 18.875 42.84375 
Q 14.796875 37.203125 14.796875 27.296875 
z
" id="DejaVuSans-100"/>
      <path d="M 18.3125 70.21875 
L 18.3125 54.6875 
L 36.8125 54.6875 
L 36.8125 47.703125 
L 18.3125 47.703125 
L 18.3125 18.015625 
Q 18.3125 11.328125 20.140625 9.421875 
Q 21.96875 7.515625 27.59375 7.515625 
L 36.8125 7.515625 
L 36.8125 0 
L 27.59375 0 
Q 17.1875 0 13.234375 3.875 
Q 9.28125 7.765625 9.28125 18.015625 
L 9.28125 47.703125 
L 2.6875 47.703125 
L 2.6875 54.6875 
L 9.28125 54.6875 
L 9.28125 70.21875 
z
" id="DejaVuSans-116"/>
     </defs>
     <g transform="translate(219.727184 59.226338)scale(0.1 -0.1)">
      <use xlink:href="#DejaVuSans-86"/>
      <use x="68.298828" xlink:href="#DejaVuSans-97"/>
      <use x="129.578125" xlink:href="#DejaVuSans-108"/>
      <use x="157.361328" xlink:href="#DejaVuSans-105"/>
      <use x="185.144531" xlink:href="#DejaVuSans-100"/>
      <use x="248.621094" xlink:href="#DejaVuSans-97"/>
      <use x="309.900391" xlink:href="#DejaVuSans-116"/>
      <use x="349.109375" xlink:href="#DejaVuSans-105"/>
      <use x="376.892578" xlink:href="#DejaVuSans-111"/>
      <use x="438.074219" xlink:href="#DejaVuSans-110"/>
      <use x="501.453125" xlink:href="#DejaVuSans-32"/>
      <use x="533.240234" xlink:href="#DejaVuSans-108"/>
      <use x="561.023438" xlink:href="#DejaVuSans-111"/>
      <use x="622.205078" xlink:href="#DejaVuSans-115"/>
      <use x="674.304688" xlink:href="#DejaVuSans-115"/>
     </g>
    </g>
   </g>
  </g>
 </g>
 <defs>
  <clipPath id="p98e123372e">
   <rect height="102.350673" width="242.175567" x="59.19068" y="27.949776"/>
  </clipPath>
 </defs>
</svg>
