<?xml version="1.0" encoding="utf-8" standalone="no"?>
<!DOCTYPE svg PUBLIC "-//W3C//DTD SVG 1.1//EN"
  "http://www.w3.org/Graphics/SVG/1.1/DTD/svg11.dtd">
<!-- Created with matplotlib (https://matplotlib.org/) -->
<svg height="174.24pt" version="1.1" viewBox="0 0 306.72 174.24" width="306.72pt" xmlns="http://www.w3.org/2000/svg" xmlns:xlink="http://www.w3.org/1999/xlink">
 <defs>
  <style type="text/css">
*{stroke-linecap:butt;stroke-linejoin:round;}
  </style>
 </defs>
 <g id="figure_1">
  <g id="patch_1">
   <path d="M 0 174.24 
L 306.72 174.24 
L 306.72 0 
L 0 0 
z
" style="fill:#ffffff;"/>
  </g>
  <g id="axes_1">
   <g id="patch_2">
    <path d="M 52.301182 135.334559 
L 296.263636 135.334559 
L 296.263636 23.588046 
L 52.301182 23.588046 
z
" style="fill:#ffffff;"/>
   </g>
   <g id="matplotlib.axis_1">
    <g id="xtick_1">
     <g id="line2d_1">
      <defs>
       <path d="M 0 0 
L 0 3.5 
" id="m404b75e69f" style="stroke:#000000;stroke-width:0.8;"/>
      </defs>
      <g>
       <use style="stroke:#000000;stroke-width:0.8;" x="58.864179" xlink:href="#m404b75e69f" y="135.334559"/>
      </g>
     </g>
     <g id="text_1">
      <!-- 0 -->
      <defs>
       <path d="M 31.78125 66.40625 
Q 24.171875 66.40625 20.328125 58.90625 
Q 16.5 51.421875 16.5 36.375 
Q 16.5 21.390625 20.328125 13.890625 
Q 24.171875 6.390625 31.78125 6.390625 
Q 39.453125 6.390625 43.28125 13.890625 
Q 47.125 21.390625 47.125 36.375 
Q 47.125 51.421875 43.28125 58.90625 
Q 39.453125 66.40625 31.78125 66.40625 
z
M 31.78125 74.21875 
Q 44.046875 74.21875 50.515625 64.515625 
Q 56.984375 54.828125 56.984375 36.375 
Q 56.984375 17.96875 50.515625 8.265625 
Q 44.046875 -1.421875 31.78125 -1.421875 
Q 19.53125 -1.421875 13.0625 8.265625 
Q 6.59375 17.96875 6.59375 36.375 
Q 6.59375 54.828125 13.0625 64.515625 
Q 19.53125 74.21875 31.78125 74.21875 
z
" id="DejaVuSans-48"/>
      </defs>
      <g transform="translate(55.682929 149.932997)scale(0.1 -0.1)">
       <use xlink:href="#DejaVuSans-48"/>
      </g>
     </g>
    </g>
    <g id="xtick_2">
     <g id="line2d_2">
      <g>
       <use style="stroke:#000000;stroke-width:0.8;" x="104.12623" xlink:href="#m404b75e69f" y="135.334559"/>
      </g>
     </g>
     <g id="text_2">
      <!-- 10 -->
      <defs>
       <path d="M 12.40625 8.296875 
L 28.515625 8.296875 
L 28.515625 63.921875 
L 10.984375 60.40625 
L 10.984375 69.390625 
L 28.421875 72.90625 
L 38.28125 72.90625 
L 38.28125 8.296875 
L 54.390625 8.296875 
L 54.390625 0 
L 12.40625 0 
z
" id="DejaVuSans-49"/>
      </defs>
      <g transform="translate(97.76373 149.932997)scale(0.1 -0.1)">
       <use xlink:href="#DejaVuSans-49"/>
       <use x="63.623047" xlink:href="#DejaVuSans-48"/>
      </g>
     </g>
    </g>
    <g id="xtick_3">
     <g id="line2d_3">
      <g>
       <use style="stroke:#000000;stroke-width:0.8;" x="149.388281" xlink:href="#m404b75e69f" y="135.334559"/>
      </g>
     </g>
     <g id="text_3">
      <!-- 20 -->
      <defs>
       <path d="M 19.1875 8.296875 
L 53.609375 8.296875 
L 53.609375 0 
L 7.328125 0 
L 7.328125 8.296875 
Q 12.9375 14.109375 22.625 23.890625 
Q 32.328125 33.6875 34.8125 36.53125 
Q 39.546875 41.84375 41.421875 45.53125 
Q 43.3125 49.21875 43.3125 52.78125 
Q 43.3125 58.59375 39.234375 62.25 
Q 35.15625 65.921875 28.609375 65.921875 
Q 23.96875 65.921875 18.8125 64.3125 
Q 13.671875 62.703125 7.8125 59.421875 
L 7.8125 69.390625 
Q 13.765625 71.78125 18.9375 73 
Q 24.125 74.21875 28.421875 74.21875 
Q 39.75 74.21875 46.484375 68.546875 
Q 53.21875 62.890625 53.21875 53.421875 
Q 53.21875 48.921875 51.53125 44.890625 
Q 49.859375 40.875 45.40625 35.40625 
Q 44.1875 33.984375 37.640625 27.21875 
Q 31.109375 20.453125 19.1875 8.296875 
z
" id="DejaVuSans-50"/>
      </defs>
      <g transform="translate(143.025781 149.932997)scale(0.1 -0.1)">
       <use xlink:href="#DejaVuSans-50"/>
       <use x="63.623047" xlink:href="#DejaVuSans-48"/>
      </g>
     </g>
    </g>
    <g id="xtick_4">
     <g id="line2d_4">
      <g>
       <use style="stroke:#000000;stroke-width:0.8;" x="194.650332" xlink:href="#m404b75e69f" y="135.334559"/>
      </g>
     </g>
     <g id="text_4">
      <!-- 30 -->
      <defs>
       <path d="M 40.578125 39.3125 
Q 47.65625 37.796875 51.625 33 
Q 55.609375 28.21875 55.609375 21.1875 
Q 55.609375 10.40625 48.1875 4.484375 
Q 40.765625 -1.421875 27.09375 -1.421875 
Q 22.515625 -1.421875 17.65625 -0.515625 
Q 12.796875 0.390625 7.625 2.203125 
L 7.625 11.71875 
Q 11.71875 9.328125 16.59375 8.109375 
Q 21.484375 6.890625 26.8125 6.890625 
Q 36.078125 6.890625 40.9375 10.546875 
Q 45.796875 14.203125 45.796875 21.1875 
Q 45.796875 27.640625 41.28125 31.265625 
Q 36.765625 34.90625 28.71875 34.90625 
L 20.21875 34.90625 
L 20.21875 43.015625 
L 29.109375 43.015625 
Q 36.375 43.015625 40.234375 45.921875 
Q 44.09375 48.828125 44.09375 54.296875 
Q 44.09375 59.90625 40.109375 62.90625 
Q 36.140625 65.921875 28.71875 65.921875 
Q 24.65625 65.921875 20.015625 65.03125 
Q 15.375 64.15625 9.8125 62.3125 
L 9.8125 71.09375 
Q 15.4375 72.65625 20.34375 73.4375 
Q 25.25 74.21875 29.59375 74.21875 
Q 40.828125 74.21875 47.359375 69.109375 
Q 53.90625 64.015625 53.90625 55.328125 
Q 53.90625 49.265625 50.4375 45.09375 
Q 46.96875 40.921875 40.578125 39.3125 
z
" id="DejaVuSans-51"/>
      </defs>
      <g transform="translate(188.287832 149.932997)scale(0.1 -0.1)">
       <use xlink:href="#DejaVuSans-51"/>
       <use x="63.623047" xlink:href="#DejaVuSans-48"/>
      </g>
     </g>
    </g>
    <g id="xtick_5">
     <g id="line2d_5">
      <g>
       <use style="stroke:#000000;stroke-width:0.8;" x="239.912383" xlink:href="#m404b75e69f" y="135.334559"/>
      </g>
     </g>
     <g id="text_5">
      <!-- 40 -->
      <defs>
       <path d="M 37.796875 64.3125 
L 12.890625 25.390625 
L 37.796875 25.390625 
z
M 35.203125 72.90625 
L 47.609375 72.90625 
L 47.609375 25.390625 
L 58.015625 25.390625 
L 58.015625 17.1875 
L 47.609375 17.1875 
L 47.609375 0 
L 37.796875 0 
L 37.796875 17.1875 
L 4.890625 17.1875 
L 4.890625 26.703125 
z
" id="DejaVuSans-52"/>
      </defs>
      <g transform="translate(233.549883 149.932997)scale(0.1 -0.1)">
       <use xlink:href="#DejaVuSans-52"/>
       <use x="63.623047" xlink:href="#DejaVuSans-48"/>
      </g>
     </g>
    </g>
    <g id="xtick_6">
     <g id="line2d_6">
      <g>
       <use style="stroke:#000000;stroke-width:0.8;" x="285.174434" xlink:href="#m404b75e69f" y="135.334559"/>
      </g>
     </g>
     <g id="text_6">
      <!-- 50 -->
      <defs>
       <path d="M 10.796875 72.90625 
L 49.515625 72.90625 
L 49.515625 64.59375 
L 19.828125 64.59375 
L 19.828125 46.734375 
Q 21.96875 47.46875 24.109375 47.828125 
Q 26.265625 48.1875 28.421875 48.1875 
Q 40.625 48.1875 47.75 41.5 
Q 54.890625 34.8125 54.890625 23.390625 
Q 54.890625 11.625 47.5625 5.09375 
Q 40.234375 -1.421875 26.90625 -1.421875 
Q 22.3125 -1.421875 17.546875 -0.640625 
Q 12.796875 0.140625 7.71875 1.703125 
L 7.71875 11.625 
Q 12.109375 9.234375 16.796875 8.0625 
Q 21.484375 6.890625 26.703125 6.890625 
Q 35.15625 6.890625 40.078125 11.328125 
Q 45.015625 15.765625 45.015625 23.390625 
Q 45.015625 31 40.078125 35.4375 
Q 35.15625 39.890625 26.703125 39.890625 
Q 22.75 39.890625 18.8125 39.015625 
Q 14.890625 38.140625 10.796875 36.28125 
z
" id="DejaVuSans-53"/>
      </defs>
      <g transform="translate(278.811934 149.932997)scale(0.1 -0.1)">
       <use xlink:href="#DejaVuSans-53"/>
       <use x="63.623047" xlink:href="#DejaVuSans-48"/>
      </g>
     </g>
    </g>
    <g id="text_7">
     <!-- Epochs -->
     <defs>
      <path d="M 9.8125 72.90625 
L 55.90625 72.90625 
L 55.90625 64.59375 
L 19.671875 64.59375 
L 19.671875 43.015625 
L 54.390625 43.015625 
L 54.390625 34.71875 
L 19.671875 34.71875 
L 19.671875 8.296875 
L 56.78125 8.296875 
L 56.78125 0 
L 9.8125 0 
z
" id="DejaVuSans-69"/>
      <path d="M 18.109375 8.203125 
L 18.109375 -20.796875 
L 9.078125 -20.796875 
L 9.078125 54.6875 
L 18.109375 54.6875 
L 18.109375 46.390625 
Q 20.953125 51.265625 25.265625 53.625 
Q 29.59375 56 35.59375 56 
Q 45.5625 56 51.78125 48.09375 
Q 58.015625 40.1875 58.015625 27.296875 
Q 58.015625 14.40625 51.78125 6.484375 
Q 45.5625 -1.421875 35.59375 -1.421875 
Q 29.59375 -1.421875 25.265625 0.953125 
Q 20.953125 3.328125 18.109375 8.203125 
z
M 48.6875 27.296875 
Q 48.6875 37.203125 44.609375 42.84375 
Q 40.53125 48.484375 33.40625 48.484375 
Q 26.265625 48.484375 22.1875 42.84375 
Q 18.109375 37.203125 18.109375 27.296875 
Q 18.109375 17.390625 22.1875 11.75 
Q 26.265625 6.109375 33.40625 6.109375 
Q 40.53125 6.109375 44.609375 11.75 
Q 48.6875 17.390625 48.6875 27.296875 
z
" id="DejaVuSans-112"/>
      <path d="M 30.609375 48.390625 
Q 23.390625 48.390625 19.1875 42.75 
Q 14.984375 37.109375 14.984375 27.296875 
Q 14.984375 17.484375 19.15625 11.84375 
Q 23.34375 6.203125 30.609375 6.203125 
Q 37.796875 6.203125 41.984375 11.859375 
Q 46.1875 17.53125 46.1875 27.296875 
Q 46.1875 37.015625 41.984375 42.703125 
Q 37.796875 48.390625 30.609375 48.390625 
z
M 30.609375 56 
Q 42.328125 56 49.015625 48.375 
Q 55.71875 40.765625 55.71875 27.296875 
Q 55.71875 13.875 49.015625 6.21875 
Q 42.328125 -1.421875 30.609375 -1.421875 
Q 18.84375 -1.421875 12.171875 6.21875 
Q 5.515625 13.875 5.515625 27.296875 
Q 5.515625 40.765625 12.171875 48.375 
Q 18.84375 56 30.609375 56 
z
" id="DejaVuSans-111"/>
      <path d="M 48.78125 52.59375 
L 48.78125 44.1875 
Q 44.96875 46.296875 41.140625 47.34375 
Q 37.3125 48.390625 33.40625 48.390625 
Q 24.65625 48.390625 19.8125 42.84375 
Q 14.984375 37.3125 14.984375 27.296875 
Q 14.984375 17.28125 19.8125 11.734375 
Q 24.65625 6.203125 33.40625 6.203125 
Q 37.3125 6.203125 41.140625 7.25 
Q 44.96875 8.296875 48.78125 10.40625 
L 48.78125 2.09375 
Q 45.015625 0.34375 40.984375 -0.53125 
Q 36.96875 -1.421875 32.421875 -1.421875 
Q 20.0625 -1.421875 12.78125 6.34375 
Q 5.515625 14.109375 5.515625 27.296875 
Q 5.515625 40.671875 12.859375 48.328125 
Q 20.21875 56 33.015625 56 
Q 37.15625 56 41.109375 55.140625 
Q 45.0625 54.296875 48.78125 52.59375 
z
" id="DejaVuSans-99"/>
      <path d="M 54.890625 33.015625 
L 54.890625 0 
L 45.90625 0 
L 45.90625 32.71875 
Q 45.90625 40.484375 42.875 44.328125 
Q 39.84375 48.1875 33.796875 48.1875 
Q 26.515625 48.1875 22.3125 43.546875 
Q 18.109375 38.921875 18.109375 30.90625 
L 18.109375 0 
L 9.078125 0 
L 9.078125 75.984375 
L 18.109375 75.984375 
L 18.109375 46.1875 
Q 21.34375 51.125 25.703125 53.5625 
Q 30.078125 56 35.796875 56 
Q 45.21875 56 50.046875 50.171875 
Q 54.890625 44.34375 54.890625 33.015625 
z
" id="DejaVuSans-104"/>
      <path d="M 44.28125 53.078125 
L 44.28125 44.578125 
Q 40.484375 46.53125 36.375 47.5 
Q 32.28125 48.484375 27.875 48.484375 
Q 21.1875 48.484375 17.84375 46.4375 
Q 14.5 44.390625 14.5 40.28125 
Q 14.5 37.15625 16.890625 35.375 
Q 19.28125 33.59375 26.515625 31.984375 
L 29.59375 31.296875 
Q 39.15625 29.25 43.1875 25.515625 
Q 47.21875 21.78125 47.21875 15.09375 
Q 47.21875 7.46875 41.1875 3.015625 
Q 35.15625 -1.421875 24.609375 -1.421875 
Q 20.21875 -1.421875 15.453125 -0.5625 
Q 10.6875 0.296875 5.421875 2 
L 5.421875 11.28125 
Q 10.40625 8.6875 15.234375 7.390625 
Q 20.0625 6.109375 24.8125 6.109375 
Q 31.15625 6.109375 34.5625 8.28125 
Q 37.984375 10.453125 37.984375 14.40625 
Q 37.984375 18.0625 35.515625 20.015625 
Q 33.0625 21.96875 24.703125 23.78125 
L 21.578125 24.515625 
Q 13.234375 26.265625 9.515625 29.90625 
Q 5.8125 33.546875 5.8125 39.890625 
Q 5.8125 47.609375 11.28125 51.796875 
Q 16.75 56 26.8125 56 
Q 31.78125 56 36.171875 55.265625 
Q 40.578125 54.546875 44.28125 53.078125 
z
" id="DejaVuSans-115"/>
     </defs>
     <g transform="translate(156.366784 163.611122)scale(0.1 -0.1)">
      <use xlink:href="#DejaVuSans-69"/>
      <use x="63.183594" xlink:href="#DejaVuSans-112"/>
      <use x="126.660156" xlink:href="#DejaVuSans-111"/>
      <use x="187.841797" xlink:href="#DejaVuSans-99"/>
      <use x="242.822266" xlink:href="#DejaVuSans-104"/>
      <use x="306.201172" xlink:href="#DejaVuSans-115"/>
     </g>
    </g>
   </g>
   <g id="matplotlib.axis_2">
    <g id="ytick_1">
     <g id="line2d_7">
      <defs>
       <path d="M 0 0 
L -3.5 0 
" id="m664aa2cd04" style="stroke:#000000;stroke-width:0.8;"/>
      </defs>
      <g>
       <use style="stroke:#000000;stroke-width:0.8;" x="52.301182" xlink:href="#m664aa2cd04" y="130.37468"/>
      </g>
     </g>
     <g id="text_8">
      <!-- 0.00 -->
      <defs>
       <path d="M 10.6875 12.40625 
L 21 12.40625 
L 21 0 
L 10.6875 0 
z
" id="DejaVuSans-46"/>
      </defs>
      <g transform="translate(23.035557 134.173898)scale(0.1 -0.1)">
       <use xlink:href="#DejaVuSans-48"/>
       <use x="63.623047" xlink:href="#DejaVuSans-46"/>
       <use x="95.410156" xlink:href="#DejaVuSans-48"/>
       <use x="159.033203" xlink:href="#DejaVuSans-48"/>
      </g>
     </g>
    </g>
    <g id="ytick_2">
     <g id="line2d_8">
      <g>
       <use style="stroke:#000000;stroke-width:0.8;" x="52.301182" xlink:href="#m664aa2cd04" y="107.783928"/>
      </g>
     </g>
     <g id="text_9">
      <!-- 0.01 -->
      <g transform="translate(23.035557 111.583147)scale(0.1 -0.1)">
       <use xlink:href="#DejaVuSans-48"/>
       <use x="63.623047" xlink:href="#DejaVuSans-46"/>
       <use x="95.410156" xlink:href="#DejaVuSans-48"/>
       <use x="159.033203" xlink:href="#DejaVuSans-49"/>
      </g>
     </g>
    </g>
    <g id="ytick_3">
     <g id="line2d_9">
      <g>
       <use style="stroke:#000000;stroke-width:0.8;" x="52.301182" xlink:href="#m664aa2cd04" y="85.193177"/>
      </g>
     </g>
     <g id="text_10">
      <!-- 0.02 -->
      <g transform="translate(23.035557 88.992396)scale(0.1 -0.1)">
       <use xlink:href="#DejaVuSans-48"/>
       <use x="63.623047" xlink:href="#DejaVuSans-46"/>
       <use x="95.410156" xlink:href="#DejaVuSans-48"/>
       <use x="159.033203" xlink:href="#DejaVuSans-50"/>
      </g>
     </g>
    </g>
    <g id="ytick_4">
     <g id="line2d_10">
      <g>
       <use style="stroke:#000000;stroke-width:0.8;" x="52.301182" xlink:href="#m664aa2cd04" y="62.602426"/>
      </g>
     </g>
     <g id="text_11">
      <!-- 0.03 -->
      <g transform="translate(23.035557 66.401644)scale(0.1 -0.1)">
       <use xlink:href="#DejaVuSans-48"/>
       <use x="63.623047" xlink:href="#DejaVuSans-46"/>
       <use x="95.410156" xlink:href="#DejaVuSans-48"/>
       <use x="159.033203" xlink:href="#DejaVuSans-51"/>
      </g>
     </g>
    </g>
    <g id="ytick_5">
     <g id="line2d_11">
      <g>
       <use style="stroke:#000000;stroke-width:0.8;" x="52.301182" xlink:href="#m664aa2cd04" y="40.011674"/>
      </g>
     </g>
     <g id="text_12">
      <!-- 0.04 -->
      <g transform="translate(23.035557 43.810893)scale(0.1 -0.1)">
       <use xlink:href="#DejaVuSans-48"/>
       <use x="63.623047" xlink:href="#DejaVuSans-46"/>
       <use x="95.410156" xlink:href="#DejaVuSans-48"/>
       <use x="159.033203" xlink:href="#DejaVuSans-52"/>
      </g>
     </g>
    </g>
    <g id="text_13">
     <!-- Loss -->
     <defs>
      <path d="M 9.8125 72.90625 
L 19.671875 72.90625 
L 19.671875 8.296875 
L 55.171875 8.296875 
L 55.171875 0 
L 9.8125 0 
z
" id="DejaVuSans-76"/>
     </defs>
     <g transform="translate(16.955869 90.515209)rotate(-90)scale(0.1 -0.1)">
      <use xlink:href="#DejaVuSans-76"/>
      <use x="55.697266" xlink:href="#DejaVuSans-111"/>
      <use x="116.878906" xlink:href="#DejaVuSans-115"/>
      <use x="168.978516" xlink:href="#DejaVuSans-115"/>
     </g>
    </g>
   </g>
   <g id="line2d_12">
    <path clip-path="url(#pb17b35118c)" d="M 63.390384 28.667433 
L 67.916589 71.915804 
L 72.442794 92.468753 
L 76.969 99.311328 
L 81.495205 94.414053 
L 86.02141 83.034843 
L 90.547615 103.82209 
L 95.07382 104.526563 
L 99.600025 112.014885 
L 104.12623 110.906349 
L 108.652435 119.644842 
L 113.17864 110.257657 
L 117.704845 109.433972 
L 122.231051 111.841742 
L 126.757256 116.461251 
L 131.283461 106.147862 
L 135.809666 121.976917 
L 140.335871 115.27706 
L 144.862076 118.732884 
L 149.388281 122.403665 
L 153.914486 119.122306 
L 158.440691 127.26794 
L 162.966896 122.778146 
L 167.493101 123.645692 
L 172.019307 123.135618 
L 176.545512 120.360852 
L 181.071717 127.739162 
L 185.597922 124.300865 
L 190.124127 127.785763 
L 194.650332 127.514477 
L 199.176537 127.541953 
L 203.702742 128.9913 
L 208.228947 129.679125 
L 212.755152 129.168338 
L 217.281357 129.617706 
L 221.807563 129.354852 
L 226.333768 129.057484 
L 230.859973 129.676807 
L 235.386178 129.684021 
L 239.912383 130.123624 
L 244.438588 130.07106 
L 248.964793 130.05872 
L 253.490998 129.494546 
L 258.017203 130.124727 
L 262.543408 130.116928 
L 267.069614 130.182268 
L 271.595819 130.255172 
L 276.122024 130.167224 
L 280.648229 130.187164 
L 285.174434 130.220417 
" style="fill:none;stroke:#008000;stroke-linecap:square;stroke-width:1.5;"/>
    <defs>
     <path d="M 0 1.5 
C 0.397805 1.5 0.77937 1.341951 1.06066 1.06066 
C 1.341951 0.77937 1.5 0.397805 1.5 0 
C 1.5 -0.397805 1.341951 -0.77937 1.06066 -1.06066 
C 0.77937 -1.341951 0.397805 -1.5 0 -1.5 
C -0.397805 -1.5 -0.77937 -1.341951 -1.06066 -1.06066 
C -1.341951 -0.77937 -1.5 -0.397805 -1.5 0 
C -1.5 0.397805 -1.341951 0.77937 -1.06066 1.06066 
C -0.77937 1.341951 -0.397805 1.5 0 1.5 
z
" id="mfade20b448" style="stroke:#008000;"/>
    </defs>
    <g clip-path="url(#pb17b35118c)">
     <use style="fill:#008000;stroke:#008000;" x="63.390384" xlink:href="#mfade20b448" y="28.667433"/>
     <use style="fill:#008000;stroke:#008000;" x="67.916589" xlink:href="#mfade20b448" y="71.915804"/>
     <use style="fill:#008000;stroke:#008000;" x="72.442794" xlink:href="#mfade20b448" y="92.468753"/>
     <use style="fill:#008000;stroke:#008000;" x="76.969" xlink:href="#mfade20b448" y="99.311328"/>
     <use style="fill:#008000;stroke:#008000;" x="81.495205" xlink:href="#mfade20b448" y="94.414053"/>
     <use style="fill:#008000;stroke:#008000;" x="86.02141" xlink:href="#mfade20b448" y="83.034843"/>
     <use style="fill:#008000;stroke:#008000;" x="90.547615" xlink:href="#mfade20b448" y="103.82209"/>
     <use style="fill:#008000;stroke:#008000;" x="95.07382" xlink:href="#mfade20b448" y="104.526563"/>
     <use style="fill:#008000;stroke:#008000;" x="99.600025" xlink:href="#mfade20b448" y="112.014885"/>
     <use style="fill:#008000;stroke:#008000;" x="104.12623" xlink:href="#mfade20b448" y="110.906349"/>
     <use style="fill:#008000;stroke:#008000;" x="108.652435" xlink:href="#mfade20b448" y="119.644842"/>
     <use style="fill:#008000;stroke:#008000;" x="113.17864" xlink:href="#mfade20b448" y="110.257657"/>
     <use style="fill:#008000;stroke:#008000;" x="117.704845" xlink:href="#mfade20b448" y="109.433972"/>
     <use style="fill:#008000;stroke:#008000;" x="122.231051" xlink:href="#mfade20b448" y="111.841742"/>
     <use style="fill:#008000;stroke:#008000;" x="126.757256" xlink:href="#mfade20b448" y="116.461251"/>
     <use style="fill:#008000;stroke:#008000;" x="131.283461" xlink:href="#mfade20b448" y="106.147862"/>
     <use style="fill:#008000;stroke:#008000;" x="135.809666" xlink:href="#mfade20b448" y="121.976917"/>
     <use style="fill:#008000;stroke:#008000;" x="140.335871" xlink:href="#mfade20b448" y="115.27706"/>
     <use style="fill:#008000;stroke:#008000;" x="144.862076" xlink:href="#mfade20b448" y="118.732884"/>
     <use style="fill:#008000;stroke:#008000;" x="149.388281" xlink:href="#mfade20b448" y="122.403665"/>
     <use style="fill:#008000;stroke:#008000;" x="153.914486" xlink:href="#mfade20b448" y="119.122306"/>
     <use style="fill:#008000;stroke:#008000;" x="158.440691" xlink:href="#mfade20b448" y="127.26794"/>
     <use style="fill:#008000;stroke:#008000;" x="162.966896" xlink:href="#mfade20b448" y="122.778146"/>
     <use style="fill:#008000;stroke:#008000;" x="167.493101" xlink:href="#mfade20b448" y="123.645692"/>
     <use style="fill:#008000;stroke:#008000;" x="172.019307" xlink:href="#mfade20b448" y="123.135618"/>
     <use style="fill:#008000;stroke:#008000;" x="176.545512" xlink:href="#mfade20b448" y="120.360852"/>
     <use style="fill:#008000;stroke:#008000;" x="181.071717" xlink:href="#mfade20b448" y="127.739162"/>
     <use style="fill:#008000;stroke:#008000;" x="185.597922" xlink:href="#mfade20b448" y="124.300865"/>
     <use style="fill:#008000;stroke:#008000;" x="190.124127" xlink:href="#mfade20b448" y="127.785763"/>
     <use style="fill:#008000;stroke:#008000;" x="194.650332" xlink:href="#mfade20b448" y="127.514477"/>
     <use style="fill:#008000;stroke:#008000;" x="199.176537" xlink:href="#mfade20b448" y="127.541953"/>
     <use style="fill:#008000;stroke:#008000;" x="203.702742" xlink:href="#mfade20b448" y="128.9913"/>
     <use style="fill:#008000;stroke:#008000;" x="208.228947" xlink:href="#mfade20b448" y="129.679125"/>
     <use style="fill:#008000;stroke:#008000;" x="212.755152" xlink:href="#mfade20b448" y="129.168338"/>
     <use style="fill:#008000;stroke:#008000;" x="217.281357" xlink:href="#mfade20b448" y="129.617706"/>
     <use style="fill:#008000;stroke:#008000;" x="221.807563" xlink:href="#mfade20b448" y="129.354852"/>
     <use style="fill:#008000;stroke:#008000;" x="226.333768" xlink:href="#mfade20b448" y="129.057484"/>
     <use style="fill:#008000;stroke:#008000;" x="230.859973" xlink:href="#mfade20b448" y="129.676807"/>
     <use style="fill:#008000;stroke:#008000;" x="235.386178" xlink:href="#mfade20b448" y="129.684021"/>
     <use style="fill:#008000;stroke:#008000;" x="239.912383" xlink:href="#mfade20b448" y="130.123624"/>
     <use style="fill:#008000;stroke:#008000;" x="244.438588" xlink:href="#mfade20b448" y="130.07106"/>
     <use style="fill:#008000;stroke:#008000;" x="248.964793" xlink:href="#mfade20b448" y="130.05872"/>
     <use style="fill:#008000;stroke:#008000;" x="253.490998" xlink:href="#mfade20b448" y="129.494546"/>
     <use style="fill:#008000;stroke:#008000;" x="258.017203" xlink:href="#mfade20b448" y="130.124727"/>
     <use style="fill:#008000;stroke:#008000;" x="262.543408" xlink:href="#mfade20b448" y="130.116928"/>
     <use style="fill:#008000;stroke:#008000;" x="267.069614" xlink:href="#mfade20b448" y="130.182268"/>
     <use style="fill:#008000;stroke:#008000;" x="271.595819" xlink:href="#mfade20b448" y="130.255172"/>
     <use style="fill:#008000;stroke:#008000;" x="276.122024" xlink:href="#mfade20b448" y="130.167224"/>
     <use style="fill:#008000;stroke:#008000;" x="280.648229" xlink:href="#mfade20b448" y="130.187164"/>
     <use style="fill:#008000;stroke:#008000;" x="285.174434" xlink:href="#mfade20b448" y="130.220417"/>
    </g>
   </g>
   <g id="line2d_13">
    <path clip-path="url(#pb17b35118c)" d="M 63.390384 48.697009 
L 67.916589 72.371026 
L 72.442794 82.580175 
L 76.969 87.971701 
L 81.495205 91.077729 
L 86.02141 93.212319 
L 90.547615 95.232046 
L 95.07382 96.342751 
L 99.600025 98.300734 
L 104.12623 98.783604 
L 108.652435 99.645362 
L 113.17864 100.325941 
L 117.704845 100.204929 
L 122.231051 100.961068 
L 126.757256 101.322376 
L 131.283461 102.344901 
L 135.809666 102.773707 
L 140.335871 102.181451 
L 144.862076 103.425744 
L 149.388281 103.18497 
L 153.914486 103.841648 
L 158.440691 104.306107 
L 162.966896 104.098636 
L 167.493101 104.550813 
L 172.019307 104.735032 
L 176.545512 104.093814 
L 181.071717 104.553495 
L 185.597922 105.169677 
L 190.124127 104.827361 
L 194.650332 105.350759 
L 199.176537 105.415651 
L 203.702742 105.080596 
L 208.228947 105.2619 
L 212.755152 105.48564 
L 217.281357 105.579034 
L 221.807563 105.942184 
L 226.333768 105.44903 
L 230.859973 105.836203 
L 235.386178 105.74671 
L 239.912383 105.374995 
L 244.438588 105.319969 
L 248.964793 105.802694 
L 253.490998 105.758978 
L 258.017203 106.037782 
L 262.543408 105.765484 
L 267.069614 106.023686 
L 271.595819 105.696704 
L 276.122024 105.993857 
L 280.648229 106.181093 
L 285.174434 105.857377 
" style="fill:none;stroke:#0000ff;stroke-linecap:square;stroke-width:1.5;"/>
    <defs>
     <path d="M 0 1.5 
C 0.397805 1.5 0.77937 1.341951 1.06066 1.06066 
C 1.341951 0.77937 1.5 0.397805 1.5 0 
C 1.5 -0.397805 1.341951 -0.77937 1.06066 -1.06066 
C 0.77937 -1.341951 0.397805 -1.5 0 -1.5 
C -0.397805 -1.5 -0.77937 -1.341951 -1.06066 -1.06066 
C -1.341951 -0.77937 -1.5 -0.397805 -1.5 0 
C -1.5 0.397805 -1.341951 0.77937 -1.06066 1.06066 
C -0.77937 1.341951 -0.397805 1.5 0 1.5 
z
" id="mb0891620e6" style="stroke:#0000ff;"/>
    </defs>
    <g clip-path="url(#pb17b35118c)">
     <use style="fill:#0000ff;stroke:#0000ff;" x="63.390384" xlink:href="#mb0891620e6" y="48.697009"/>
     <use style="fill:#0000ff;stroke:#0000ff;" x="67.916589" xlink:href="#mb0891620e6" y="72.371026"/>
     <use style="fill:#0000ff;stroke:#0000ff;" x="72.442794" xlink:href="#mb0891620e6" y="82.580175"/>
     <use style="fill:#0000ff;stroke:#0000ff;" x="76.969" xlink:href="#mb0891620e6" y="87.971701"/>
     <use style="fill:#0000ff;stroke:#0000ff;" x="81.495205" xlink:href="#mb0891620e6" y="91.077729"/>
     <use style="fill:#0000ff;stroke:#0000ff;" x="86.02141" xlink:href="#mb0891620e6" y="93.212319"/>
     <use style="fill:#0000ff;stroke:#0000ff;" x="90.547615" xlink:href="#mb0891620e6" y="95.232046"/>
     <use style="fill:#0000ff;stroke:#0000ff;" x="95.07382" xlink:href="#mb0891620e6" y="96.342751"/>
     <use style="fill:#0000ff;stroke:#0000ff;" x="99.600025" xlink:href="#mb0891620e6" y="98.300734"/>
     <use style="fill:#0000ff;stroke:#0000ff;" x="104.12623" xlink:href="#mb0891620e6" y="98.783604"/>
     <use style="fill:#0000ff;stroke:#0000ff;" x="108.652435" xlink:href="#mb0891620e6" y="99.645362"/>
     <use style="fill:#0000ff;stroke:#0000ff;" x="113.17864" xlink:href="#mb0891620e6" y="100.325941"/>
     <use style="fill:#0000ff;stroke:#0000ff;" x="117.704845" xlink:href="#mb0891620e6" y="100.204929"/>
     <use style="fill:#0000ff;stroke:#0000ff;" x="122.231051" xlink:href="#mb0891620e6" y="100.961068"/>
     <use style="fill:#0000ff;stroke:#0000ff;" x="126.757256" xlink:href="#mb0891620e6" y="101.322376"/>
     <use style="fill:#0000ff;stroke:#0000ff;" x="131.283461" xlink:href="#mb0891620e6" y="102.344901"/>
     <use style="fill:#0000ff;stroke:#0000ff;" x="135.809666" xlink:href="#mb0891620e6" y="102.773707"/>
     <use style="fill:#0000ff;stroke:#0000ff;" x="140.335871" xlink:href="#mb0891620e6" y="102.181451"/>
     <use style="fill:#0000ff;stroke:#0000ff;" x="144.862076" xlink:href="#mb0891620e6" y="103.425744"/>
     <use style="fill:#0000ff;stroke:#0000ff;" x="149.388281" xlink:href="#mb0891620e6" y="103.18497"/>
     <use style="fill:#0000ff;stroke:#0000ff;" x="153.914486" xlink:href="#mb0891620e6" y="103.841648"/>
     <use style="fill:#0000ff;stroke:#0000ff;" x="158.440691" xlink:href="#mb0891620e6" y="104.306107"/>
     <use style="fill:#0000ff;stroke:#0000ff;" x="162.966896" xlink:href="#mb0891620e6" y="104.098636"/>
     <use style="fill:#0000ff;stroke:#0000ff;" x="167.493101" xlink:href="#mb0891620e6" y="104.550813"/>
     <use style="fill:#0000ff;stroke:#0000ff;" x="172.019307" xlink:href="#mb0891620e6" y="104.735032"/>
     <use style="fill:#0000ff;stroke:#0000ff;" x="176.545512" xlink:href="#mb0891620e6" y="104.093814"/>
     <use style="fill:#0000ff;stroke:#0000ff;" x="181.071717" xlink:href="#mb0891620e6" y="104.553495"/>
     <use style="fill:#0000ff;stroke:#0000ff;" x="185.597922" xlink:href="#mb0891620e6" y="105.169677"/>
     <use style="fill:#0000ff;stroke:#0000ff;" x="190.124127" xlink:href="#mb0891620e6" y="104.827361"/>
     <use style="fill:#0000ff;stroke:#0000ff;" x="194.650332" xlink:href="#mb0891620e6" y="105.350759"/>
     <use style="fill:#0000ff;stroke:#0000ff;" x="199.176537" xlink:href="#mb0891620e6" y="105.415651"/>
     <use style="fill:#0000ff;stroke:#0000ff;" x="203.702742" xlink:href="#mb0891620e6" y="105.080596"/>
     <use style="fill:#0000ff;stroke:#0000ff;" x="208.228947" xlink:href="#mb0891620e6" y="105.2619"/>
     <use style="fill:#0000ff;stroke:#0000ff;" x="212.755152" xlink:href="#mb0891620e6" y="105.48564"/>
     <use style="fill:#0000ff;stroke:#0000ff;" x="217.281357" xlink:href="#mb0891620e6" y="105.579034"/>
     <use style="fill:#0000ff;stroke:#0000ff;" x="221.807563" xlink:href="#mb0891620e6" y="105.942184"/>
     <use style="fill:#0000ff;stroke:#0000ff;" x="226.333768" xlink:href="#mb0891620e6" y="105.44903"/>
     <use style="fill:#0000ff;stroke:#0000ff;" x="230.859973" xlink:href="#mb0891620e6" y="105.836203"/>
     <use style="fill:#0000ff;stroke:#0000ff;" x="235.386178" xlink:href="#mb0891620e6" y="105.74671"/>
     <use style="fill:#0000ff;stroke:#0000ff;" x="239.912383" xlink:href="#mb0891620e6" y="105.374995"/>
     <use style="fill:#0000ff;stroke:#0000ff;" x="244.438588" xlink:href="#mb0891620e6" y="105.319969"/>
     <use style="fill:#0000ff;stroke:#0000ff;" x="248.964793" xlink:href="#mb0891620e6" y="105.802694"/>
     <use style="fill:#0000ff;stroke:#0000ff;" x="253.490998" xlink:href="#mb0891620e6" y="105.758978"/>
     <use style="fill:#0000ff;stroke:#0000ff;" x="258.017203" xlink:href="#mb0891620e6" y="106.037782"/>
     <use style="fill:#0000ff;stroke:#0000ff;" x="262.543408" xlink:href="#mb0891620e6" y="105.765484"/>
     <use style="fill:#0000ff;stroke:#0000ff;" x="267.069614" xlink:href="#mb0891620e6" y="106.023686"/>
     <use style="fill:#0000ff;stroke:#0000ff;" x="271.595819" xlink:href="#mb0891620e6" y="105.696704"/>
     <use style="fill:#0000ff;stroke:#0000ff;" x="276.122024" xlink:href="#mb0891620e6" y="105.993857"/>
     <use style="fill:#0000ff;stroke:#0000ff;" x="280.648229" xlink:href="#mb0891620e6" y="106.181093"/>
     <use style="fill:#0000ff;stroke:#0000ff;" x="285.174434" xlink:href="#mb0891620e6" y="105.857377"/>
    </g>
   </g>
   <g id="patch_3">
    <path d="M 52.301182 135.334559 
L 52.301182 23.588046 
" style="fill:none;stroke:#000000;stroke-linecap:square;stroke-linejoin:miter;stroke-width:0.8;"/>
   </g>
   <g id="patch_4">
    <path d="M 296.263636 135.334559 
L 296.263636 23.588046 
" style="fill:none;stroke:#000000;stroke-linecap:square;stroke-linejoin:miter;stroke-width:0.8;"/>
   </g>
   <g id="patch_5">
    <path d="M 52.301182 135.334559 
L 296.263636 135.334559 
" style="fill:none;stroke:#000000;stroke-linecap:square;stroke-linejoin:miter;stroke-width:0.8;"/>
   </g>
   <g id="patch_6">
    <path d="M 52.301182 23.588046 
L 296.263636 23.588046 
" style="fill:none;stroke:#000000;stroke-linecap:square;stroke-linejoin:miter;stroke-width:0.8;"/>
   </g>
   <g id="text_14">
    <!-- VNET1 -->
    <defs>
     <path d="M 28.609375 0 
L 0.78125 72.90625 
L 11.078125 72.90625 
L 34.1875 11.53125 
L 57.328125 72.90625 
L 67.578125 72.90625 
L 39.796875 0 
z
" id="DejaVuSans-86"/>
     <path d="M 9.8125 72.90625 
L 23.09375 72.90625 
L 55.421875 11.921875 
L 55.421875 72.90625 
L 64.984375 72.90625 
L 64.984375 0 
L 51.703125 0 
L 19.390625 60.984375 
L 19.390625 0 
L 9.8125 0 
z
" id="DejaVuSans-78"/>
     <path d="M -0.296875 72.90625 
L 61.375 72.90625 
L 61.375 64.59375 
L 35.5 64.59375 
L 35.5 0 
L 25.59375 0 
L 25.59375 64.59375 
L -0.296875 64.59375 
z
" id="DejaVuSans-84"/>
    </defs>
    <g transform="translate(154.415847 17.588046)scale(0.12 -0.12)">
     <use xlink:href="#DejaVuSans-86"/>
     <use x="68.408203" xlink:href="#DejaVuSans-78"/>
     <use x="143.212891" xlink:href="#DejaVuSans-69"/>
     <use x="206.396484" xlink:href="#DejaVuSans-84"/>
     <use x="267.480469" xlink:href="#DejaVuSans-49"/>
    </g>
   </g>
   <g id="legend_1">
    <g id="patch_7">
     <path d="M 184.624574 60.944296 
L 289.263636 60.944296 
Q 291.263636 60.944296 291.263636 58.944296 
L 291.263636 30.588046 
Q 291.263636 28.588046 289.263636 28.588046 
L 184.624574 28.588046 
Q 182.624574 28.588046 182.624574 30.588046 
L 182.624574 58.944296 
Q 182.624574 60.944296 184.624574 60.944296 
z
" style="fill:#ffffff;opacity:0.8;stroke:#cccccc;stroke-linejoin:miter;"/>
    </g>
    <g id="line2d_14">
     <path d="M 186.624574 36.686483 
L 206.624574 36.686483 
" style="fill:none;stroke:#008000;stroke-linecap:square;stroke-width:1.5;"/>
    </g>
    <g id="line2d_15">
     <g>
      <use style="fill:#008000;stroke:#008000;" x="196.624574" xlink:href="#mfade20b448" y="36.686483"/>
     </g>
    </g>
    <g id="text_15">
     <!-- Training loss -->
     <defs>
      <path d="M 41.109375 46.296875 
Q 39.59375 47.171875 37.8125 47.578125 
Q 36.03125 48 33.890625 48 
Q 26.265625 48 22.1875 43.046875 
Q 18.109375 38.09375 18.109375 28.8125 
L 18.109375 0 
L 9.078125 0 
L 9.078125 54.6875 
L 18.109375 54.6875 
L 18.109375 46.1875 
Q 20.953125 51.171875 25.484375 53.578125 
Q 30.03125 56 36.53125 56 
Q 37.453125 56 38.578125 55.875 
Q 39.703125 55.765625 41.0625 55.515625 
z
" id="DejaVuSans-114"/>
      <path d="M 34.28125 27.484375 
Q 23.390625 27.484375 19.1875 25 
Q 14.984375 22.515625 14.984375 16.5 
Q 14.984375 11.71875 18.140625 8.90625 
Q 21.296875 6.109375 26.703125 6.109375 
Q 34.1875 6.109375 38.703125 11.40625 
Q 43.21875 16.703125 43.21875 25.484375 
L 43.21875 27.484375 
z
M 52.203125 31.203125 
L 52.203125 0 
L 43.21875 0 
L 43.21875 8.296875 
Q 40.140625 3.328125 35.546875 0.953125 
Q 30.953125 -1.421875 24.3125 -1.421875 
Q 15.921875 -1.421875 10.953125 3.296875 
Q 6 8.015625 6 15.921875 
Q 6 25.140625 12.171875 29.828125 
Q 18.359375 34.515625 30.609375 34.515625 
L 43.21875 34.515625 
L 43.21875 35.40625 
Q 43.21875 41.609375 39.140625 45 
Q 35.0625 48.390625 27.6875 48.390625 
Q 23 48.390625 18.546875 47.265625 
Q 14.109375 46.140625 10.015625 43.890625 
L 10.015625 52.203125 
Q 14.9375 54.109375 19.578125 55.046875 
Q 24.21875 56 28.609375 56 
Q 40.484375 56 46.34375 49.84375 
Q 52.203125 43.703125 52.203125 31.203125 
z
" id="DejaVuSans-97"/>
      <path d="M 9.421875 54.6875 
L 18.40625 54.6875 
L 18.40625 0 
L 9.421875 0 
z
M 9.421875 75.984375 
L 18.40625 75.984375 
L 18.40625 64.59375 
L 9.421875 64.59375 
z
" id="DejaVuSans-105"/>
      <path d="M 54.890625 33.015625 
L 54.890625 0 
L 45.90625 0 
L 45.90625 32.71875 
Q 45.90625 40.484375 42.875 44.328125 
Q 39.84375 48.1875 33.796875 48.1875 
Q 26.515625 48.1875 22.3125 43.546875 
Q 18.109375 38.921875 18.109375 30.90625 
L 18.109375 0 
L 9.078125 0 
L 9.078125 54.6875 
L 18.109375 54.6875 
L 18.109375 46.1875 
Q 21.34375 51.125 25.703125 53.5625 
Q 30.078125 56 35.796875 56 
Q 45.21875 56 50.046875 50.171875 
Q 54.890625 44.34375 54.890625 33.015625 
z
" id="DejaVuSans-110"/>
      <path d="M 45.40625 27.984375 
Q 45.40625 37.75 41.375 43.109375 
Q 37.359375 48.484375 30.078125 48.484375 
Q 22.859375 48.484375 18.828125 43.109375 
Q 14.796875 37.75 14.796875 27.984375 
Q 14.796875 18.265625 18.828125 12.890625 
Q 22.859375 7.515625 30.078125 7.515625 
Q 37.359375 7.515625 41.375 12.890625 
Q 45.40625 18.265625 45.40625 27.984375 
z
M 54.390625 6.78125 
Q 54.390625 -7.171875 48.1875 -13.984375 
Q 42 -20.796875 29.203125 -20.796875 
Q 24.46875 -20.796875 20.265625 -20.09375 
Q 16.0625 -19.390625 12.109375 -17.921875 
L 12.109375 -9.1875 
Q 16.0625 -11.328125 19.921875 -12.34375 
Q 23.78125 -13.375 27.78125 -13.375 
Q 36.625 -13.375 41.015625 -8.765625 
Q 45.40625 -4.15625 45.40625 5.171875 
L 45.40625 9.625 
Q 42.625 4.78125 38.28125 2.390625 
Q 33.9375 0 27.875 0 
Q 17.828125 0 11.671875 7.65625 
Q 5.515625 15.328125 5.515625 27.984375 
Q 5.515625 40.671875 11.671875 48.328125 
Q 17.828125 56 27.875 56 
Q 33.9375 56 38.28125 53.609375 
Q 42.625 51.21875 45.40625 46.390625 
L 45.40625 54.6875 
L 54.390625 54.6875 
z
" id="DejaVuSans-103"/>
      <path id="DejaVuSans-32"/>
      <path d="M 9.421875 75.984375 
L 18.40625 75.984375 
L 18.40625 0 
L 9.421875 0 
z
" id="DejaVuSans-108"/>
     </defs>
     <g transform="translate(214.624574 40.186483)scale(0.1 -0.1)">
      <use xlink:href="#DejaVuSans-84"/>
      <use x="60.865234" xlink:href="#DejaVuSans-114"/>
      <use x="101.978516" xlink:href="#DejaVuSans-97"/>
      <use x="163.257812" xlink:href="#DejaVuSans-105"/>
      <use x="191.041016" xlink:href="#DejaVuSans-110"/>
      <use x="254.419922" xlink:href="#DejaVuSans-105"/>
      <use x="282.203125" xlink:href="#DejaVuSans-110"/>
      <use x="345.582031" xlink:href="#DejaVuSans-103"/>
      <use x="409.058594" xlink:href="#DejaVuSans-32"/>
      <use x="440.845703" xlink:href="#DejaVuSans-108"/>
      <use x="468.628906" xlink:href="#DejaVuSans-111"/>
      <use x="529.810547" xlink:href="#DejaVuSans-115"/>
      <use x="581.910156" xlink:href="#DejaVuSans-115"/>
     </g>
    </g>
    <g id="line2d_16">
     <path d="M 186.624574 51.364608 
L 206.624574 51.364608 
" style="fill:none;stroke:#0000ff;stroke-linecap:square;stroke-width:1.5;"/>
    </g>
    <g id="line2d_17">
     <g>
      <use style="fill:#0000ff;stroke:#0000ff;" x="196.624574" xlink:href="#mb0891620e6" y="51.364608"/>
     </g>
    </g>
    <g id="text_16">
     <!-- Validation loss -->
     <defs>
      <path d="M 45.40625 46.390625 
L 45.40625 75.984375 
L 54.390625 75.984375 
L 54.390625 0 
L 45.40625 0 
L 45.40625 8.203125 
Q 42.578125 3.328125 38.25 0.953125 
Q 33.9375 -1.421875 27.875 -1.421875 
Q 17.96875 -1.421875 11.734375 6.484375 
Q 5.515625 14.40625 5.515625 27.296875 
Q 5.515625 40.1875 11.734375 48.09375 
Q 17.96875 56 27.875 56 
Q 33.9375 56 38.25 53.625 
Q 42.578125 51.265625 45.40625 46.390625 
z
M 14.796875 27.296875 
Q 14.796875 17.390625 18.875 11.75 
Q 22.953125 6.109375 30.078125 6.109375 
Q 37.203125 6.109375 41.296875 11.75 
Q 45.40625 17.390625 45.40625 27.296875 
Q 45.40625 37.203125 41.296875 42.84375 
Q 37.203125 48.484375 30.078125 48.484375 
Q 22.953125 48.484375 18.875 42.84375 
Q 14.796875 37.203125 14.796875 27.296875 
z
" id="DejaVuSans-100"/>
      <path d="M 18.3125 70.21875 
L 18.3125 54.6875 
L 36.8125 54.6875 
L 36.8125 47.703125 
L 18.3125 47.703125 
L 18.3125 18.015625 
Q 18.3125 11.328125 20.140625 9.421875 
Q 21.96875 7.515625 27.59375 7.515625 
L 36.8125 7.515625 
L 36.8125 0 
L 27.59375 0 
Q 17.1875 0 13.234375 3.875 
Q 9.28125 7.765625 9.28125 18.015625 
L 9.28125 47.703125 
L 2.6875 47.703125 
L 2.6875 54.6875 
L 9.28125 54.6875 
L 9.28125 70.21875 
z
" id="DejaVuSans-116"/>
     </defs>
     <g transform="translate(214.624574 54.864608)scale(0.1 -0.1)">
      <use xlink:href="#DejaVuSans-86"/>
      <use x="68.298828" xlink:href="#DejaVuSans-97"/>
      <use x="129.578125" xlink:href="#DejaVuSans-108"/>
      <use x="157.361328" xlink:href="#DejaVuSans-105"/>
      <use x="185.144531" xlink:href="#DejaVuSans-100"/>
      <use x="248.621094" xlink:href="#DejaVuSans-97"/>
      <use x="309.900391" xlink:href="#DejaVuSans-116"/>
      <use x="349.109375" xlink:href="#DejaVuSans-105"/>
      <use x="376.892578" xlink:href="#DejaVuSans-111"/>
      <use x="438.074219" xlink:href="#DejaVuSans-110"/>
      <use x="501.453125" xlink:href="#DejaVuSans-32"/>
      <use x="533.240234" xlink:href="#DejaVuSans-108"/>
      <use x="561.023438" xlink:href="#DejaVuSans-111"/>
      <use x="622.205078" xlink:href="#DejaVuSans-115"/>
      <use x="674.304688" xlink:href="#DejaVuSans-115"/>
     </g>
    </g>
   </g>
  </g>
 </g>
 <defs>
  <clipPath id="pb17b35118c">
   <rect height="111.746513" width="243.962455" x="52.301182" y="23.588046"/>
  </clipPath>
 </defs>
</svg>
